<?xml version="1.0" encoding="UTF-8" ?>
<!DOCTYPE svg PUBLIC "-//W3C//DTD SVG 1.1//EN" "http://www.w3.org/Graphics/SVG/1.1/DTD/svg11.dtd">
<svg width="480pt" height="194pt" viewBox="0 0 480 194" version="1.1" xmlns="http://www.w3.org/2000/svg">
<g id="#000000ff">
<path fill="#000000" opacity="1.00" d=" M 25.37 0.00 L 27.34 0.00 C 29.39 0.87 30.88 2.64 30.60 4.97 C 30.66 25.84 30.61 46.72 30.61 67.59 C 40.89 61.02 52.82 56.91 65.07 56.59 C 82.71 55.85 100.46 62.63 113.21 74.83 C 126.16 86.95 133.99 104.25 134.72 121.95 C 135.50 137.71 130.77 153.70 121.37 166.39 C 110.91 180.74 94.60 190.78 76.96 193.21 C 60.99 195.61 44.29 191.79 30.82 182.92 C 30.39 185.46 31.39 189.96 27.81 190.55 C 20.18 191.05 12.52 190.67 4.88 190.75 C 2.88 191.01 1.29 189.81 0.00 188.44 L 0.00 29.53 C 0.62 22.65 6.59 18.56 10.94 13.96 C 15.79 9.35 20.13 4.18 25.37 0.00 M 62.40 84.41 C 52.35 85.61 42.87 90.74 36.32 98.45 C 29.53 106.28 25.92 116.77 26.45 127.12 C 26.93 139.00 32.90 150.50 42.33 157.73 C 50.90 164.46 62.24 167.50 73.02 165.96 C 84.63 164.43 95.37 157.59 101.73 147.77 C 107.29 139.38 109.54 128.90 107.99 118.96 C 106.35 107.88 99.89 97.66 90.66 91.33 C 82.51 85.65 72.24 83.18 62.40 84.41 Z" />
<path fill="#000000" opacity="1.00" d=" M 176.36 0.00 L 178.30 0.00 C 180.35 0.88 181.85 2.64 181.57 4.98 C 181.63 25.85 181.58 46.72 181.58 67.59 C 195.99 58.17 214.00 54.35 230.95 57.73 C 249.26 61.14 265.69 72.77 275.40 88.60 C 284.13 102.60 287.47 119.77 284.92 136.04 C 282.35 153.08 273.10 169.02 259.52 179.63 C 247.81 188.90 232.92 194.07 217.98 193.89 C 205.17 193.90 192.50 189.90 181.79 182.93 C 181.34 185.46 182.34 189.93 178.81 190.54 C 170.88 191.02 162.89 190.74 154.94 190.69 C 152.35 190.96 150.77 188.50 151.08 186.14 C 151.03 134.41 151.06 82.67 151.06 30.94 C 150.73 25.88 153.85 21.62 157.42 18.41 C 163.85 12.39 169.57 5.61 176.36 0.00 M 215.26 84.22 C 204.54 84.99 194.27 90.23 187.31 98.40 C 180.53 106.22 176.91 116.66 177.40 127.00 C 177.83 138.69 183.60 150.03 192.75 157.31 C 201.13 164.12 212.29 167.35 223.01 166.08 C 234.06 164.90 244.46 158.89 251.11 150.01 C 257.57 141.56 260.47 130.53 259.09 119.99 C 257.76 109.01 251.69 98.75 242.81 92.18 C 234.99 86.30 225.00 83.46 215.26 84.22 Z" />
<path fill="#000000" opacity="1.00" d=" M 319.47 17.42 C 330.16 4.74 347.53 -1.93 363.94 0.71 C 366.21 0.99 368.35 2.74 368.53 5.11 C 368.91 10.41 368.61 15.74 368.71 21.05 C 368.76 23.04 368.54 25.98 366.00 26.26 C 362.65 26.51 359.22 25.95 355.92 26.84 C 347.49 28.74 340.49 35.69 338.44 44.08 C 337.53 47.74 337.71 51.54 337.70 55.28 C 346.78 55.37 355.87 55.13 364.95 55.37 C 367.52 55.31 369.00 58.56 367.63 60.62 C 364.56 66.46 361.00 72.04 357.84 77.84 C 356.59 79.74 355.57 82.58 352.91 82.68 C 347.86 83.01 342.78 82.69 337.72 82.80 C 337.70 117.20 337.73 151.61 337.71 186.01 C 337.98 188.24 336.59 190.86 334.05 190.69 C 326.35 190.83 318.64 190.81 310.95 190.70 C 308.37 190.94 306.84 188.33 307.17 186.02 C 307.14 151.61 307.17 117.20 307.15 82.79 C 303.12 82.72 299.07 83.04 295.05 82.63 C 292.86 82.40 292.04 80.00 292.20 78.09 C 292.21 71.71 292.08 65.31 292.27 58.93 C 292.20 57.29 293.38 55.58 295.08 55.43 C 299.08 55.06 303.11 55.35 307.13 55.29 C 306.39 41.71 310.37 27.70 319.47 17.42 Z" />
<path fill="#000000" opacity="1.00" d=" M 420.42 57.75 C 440.72 53.69 462.73 59.95 477.93 73.98 C 480.16 75.64 480.66 79.45 478.10 81.05 C 474.11 83.82 469.70 85.90 465.58 88.48 C 463.46 89.67 461.42 91.11 459.07 91.82 C 456.60 92.40 454.56 90.52 452.52 89.47 C 442.07 83.03 428.54 82.53 417.32 87.26 C 408.39 90.98 400.87 97.95 396.52 106.59 C 391.12 117.09 390.61 129.96 395.14 140.85 C 399.07 150.50 406.82 158.51 416.33 162.75 C 426.75 167.47 439.27 167.64 449.60 162.58 C 452.13 161.36 454.40 159.62 457.04 158.62 C 459.61 158.07 461.81 159.91 463.97 161.01 C 468.50 163.84 473.31 166.20 477.76 169.16 C 480.18 170.63 480.30 174.44 478.15 176.20 C 466.10 187.55 449.57 193.99 433.01 193.89 C 421.48 193.93 409.96 190.82 399.98 185.05 C 386.10 177.10 375.28 164.05 369.88 149.01 C 363.77 132.20 364.44 113.04 371.77 96.72 C 380.49 76.94 399.10 61.74 420.42 57.75 Z" />
</g>
</svg>
