<?xml version="1.0" encoding="UTF-8" standalone="no"?>
<svg
   width="194.59019"
   height="56.694099"
   version="1.1"
   xml:space="preserve"
   style="clip-rule:evenodd;fill-rule:evenodd;stroke-linejoin:round;stroke-miterlimit:2"
   id="svg28"
   sodipodi:docname="fsk-logo-only.svg"
   inkscape:version="1.4.3 (0d15f75, 2025-12-25)"
   xmlns:inkscape="http://www.inkscape.org/namespaces/inkscape"
   xmlns:sodipodi="http://sodipodi.sourceforge.net/DTD/sodipodi-0.dtd"
   xmlns="http://www.w3.org/2000/svg"
   xmlns:svg="http://www.w3.org/2000/svg"><defs
   id="defs28" /><sodipodi:namedview
   id="namedview28"
   pagecolor="#505050"
   bordercolor="#ffffff"
   borderopacity="1"
   inkscape:showpageshadow="0"
   inkscape:pageopacity="0"
   inkscape:pagecheckerboard="1"
   inkscape:deskcolor="#505050"
   inkscape:zoom="3.7876328"
   inkscape:cx="67.852406"
   inkscape:cy="1.7161114"
   inkscape:window-width="3840"
   inkscape:window-height="1529"
   inkscape:window-x="-8"
   inkscape:window-y="-8"
   inkscape:window-maximized="1"
   inkscape:current-layer="svg28" />
    <g
   id="FSK"
   transform="translate(2e-4,1e-4)">
        <g
   transform="translate(44.2088,33.039)"
   id="g1">
            <path
   d="m 0,-9.384 c -0.479,-0.909 -1.26,-1.696 -2.318,-2.339 l -37.478,-20.814 c -0.528,-0.333 -1.167,-0.502 -1.897,-0.502 -2.426,0 -2.426,4.1 -2.426,5.851 v 1.861 c 0,4.215 1.098,6.925 3.269,8.054 l 24.245,12.521 -24.336,12.525 c -2.168,1.127 -3.268,3.837 -3.268,8.054 v 1.86 c 0,1.786 0,5.968 2.426,5.968 0.618,0 1.257,-0.209 1.899,-0.619 l 37.53,-20.91 0.034,-0.02 c 1.059,-0.64 1.841,-1.428 2.321,-2.341 0.475,-0.903 0.706,-2.038 0.706,-3.469 V -5.913 C 0.707,-7.342 0.477,-8.477 0,-9.384"
   style="fill:#e4df00;fill-rule:nonzero"
   id="path1" />
        </g>
        <g
   transform="translate(193.956,3.3259)"
   id="g2">
            <path
   d="M 0,50.042 -17.341,23.438 -2.059,0 c 0.422,-0.634 0.634,-1.187 0.634,-1.663 0,-0.791 -1.478,-1.188 -4.434,-1.188 h -3.722 c -2.587,0 -4.17,0.503 -4.75,1.505 l -13.778,22.329 -0.317,-0.08 V -0.316 c 0,-1.69 -1.584,-2.535 -4.751,-2.535 h -2.771 c -3.167,0 -4.751,0.845 -4.751,2.535 v 50.675 c 0,1.69 1.584,2.534 4.751,2.534 h 2.771 c 3.167,0 4.751,-0.844 4.751,-2.534 V 27.396 l 0.317,-0.079 14.885,24.072 c 0.581,1.003 2.191,1.504 4.83,1.504 h 4.593 c 2.956,0 4.435,-0.396 4.435,-1.188 C 0.634,51.23 0.422,50.676 0,50.042 m -50.924,-4.038 c 1.715,-2.586 2.574,-5.911 2.574,-9.977 0,-3.325 -0.701,-6.057 -2.098,-8.195 -1.4,-2.138 -3.049,-3.773 -4.949,-4.909 -1.901,-1.135 -4.355,-2.336 -7.364,-3.603 -2.058,-0.897 -3.616,-1.623 -4.672,-2.177 -1.056,-0.554 -1.953,-1.28 -2.692,-2.178 -0.739,-0.897 -1.108,-2.031 -1.108,-3.404 0,-1.161 0.541,-2.19 1.623,-3.088 1.081,-0.898 2.995,-1.347 5.741,-1.347 2.058,0 4.038,0.317 5.938,0.95 0.422,0.158 0.937,0.37 1.544,0.634 0.607,0.265 1.041,0.395 1.306,0.395 0.581,0 1.214,-0.408 1.901,-1.226 0.685,-0.818 1.267,-1.781 1.742,-2.891 0.475,-1.108 0.712,-2.031 0.712,-2.771 0,-0.844 -0.581,-1.689 -1.742,-2.533 -1.266,-0.898 -2.996,-1.623 -5.186,-2.178 -2.191,-0.555 -4.632,-0.832 -7.325,-0.832 -3.273,0 -6.334,0.568 -9.184,1.703 -2.851,1.136 -5.16,2.903 -6.929,5.305 -1.768,2.403 -2.652,5.398 -2.652,8.987 0,4.329 0.95,7.668 2.85,10.017 1.901,2.349 4.514,4.315 7.839,5.898 l 3.643,1.584 c 3.009,1.215 5.186,2.31 6.532,3.286 1.346,0.978 2.02,2.31 2.02,3.998 0,2.06 -0.727,3.498 -2.178,4.316 -1.452,0.819 -3.207,1.227 -5.266,1.227 -1.848,0 -3.458,-0.237 -4.83,-0.712 -1.373,-0.475 -2.903,-1.135 -4.593,-1.979 -1.161,-0.634 -1.9,-0.951 -2.216,-0.951 -0.529,0 -1.188,0.423 -1.98,1.267 -0.792,0.845 -1.478,1.82 -2.058,2.93 -0.582,1.108 -0.872,2.058 -0.872,2.85 0,1.003 0.739,2.007 2.217,3.009 1.584,1.161 3.774,2.112 6.573,2.851 2.796,0.738 6.069,1.108 9.818,1.108 3.114,0 6.017,-0.582 8.71,-1.742 2.692,-1.16 4.895,-3.035 6.611,-5.622 M -88.817,-1.065 c 0,-1.452 -1.087,-1.627 -1.451,-1.627 h -29.367 c -1.109,0 -1.914,0.251 -2.415,0.753 -0.503,0.502 -0.753,1.305 -0.753,2.414 v 49.884 c 0,1.69 1.584,2.534 4.751,2.534 h 2.693 c 3.167,0 4.751,-0.844 4.751,-2.534 V 29.613 h 16.469 c 0.844,0 1.451,-0.316 1.822,-0.949 0.368,-0.634 0.553,-1.637 0.553,-3.01 V 23.2 c 0,-1.372 -0.185,-2.375 -0.553,-3.009 -0.371,-0.633 -0.978,-0.95 -1.822,-0.95 h -16.469 V 7.681 h 17.795 c 0.843,0 1.451,-0.317 1.821,-0.951 0.045,-0.078 2.175,-4.643 2.175,-7.795"
   style="fill:#23325a;fill-rule:nonzero"
   id="path2" />
        </g>
    </g>
    
</svg>
