<?xml version="1.0" encoding="UTF-8" standalone="no"?>
<!-- Created with Inkscape (http://www.inkscape.org/) -->

<svg
   xmlns:dc="http://purl.org/dc/elements/1.1/"
   xmlns:cc="http://creativecommons.org/ns#"
   xmlns:rdf="http://www.w3.org/1999/02/22-rdf-syntax-ns#"
   xmlns:svg="http://www.w3.org/2000/svg"
   xmlns="http://www.w3.org/2000/svg"
   version="1.2"
   width="1283"
   height="599"
   id="svg2">
  <defs
     id="defs4" />
  <metadata
     id="metadata7">
    <rdf:RDF>
      <cc:Work
         rdf:about="">
        <dc:format>image/svg+xml</dc:format>
        <dc:type
           rdf:resource="http://purl.org/dc/dcmitype/StillImage" />
        <dc:title></dc:title>
      </cc:Work>
    </rdf:RDF>
  </metadata>
  <g
     transform="translate(0,-453.36198)"
     id="layer1">
    <g
       transform="matrix(13.86272,0,0,14.643227,10530.471,-7992.0353)"
       id="flowRoot2996"
       style="font-size:40px;font-style:normal;font-weight:normal;line-height:125%;letter-spacing:0px;word-spacing:0px;fill:#000000;fill-opacity:1;stroke:none;font-family:Sans">
      <path
         d="m -753.37423,577.289 8.53515,0 -0.68359,5.21541 -3.14453,0 -3.8086,28.57225 3.14453,0 -0.66406,5.19495 -8.57422,0 z"
         id="path3007"
         style="font-style:oblique;font-variant:normal;font-weight:bold;font-stretch:normal;fill:#ffff00;font-family:Century Gothic;-inkscape-font-specification:Century Gothic Bold Oblique" />
      <path
         d="m -737.77265,578.55677 c 0.89842,3e-5 1.66014,0.31578 2.28515,0.94727 0.62499,0.63153 0.93749,1.39 0.9375,2.27539 -1e-5,0.88544 -0.31251,1.6439 -0.9375,2.27539 -0.62501,0.63153 -1.38673,0.94729 -2.28515,0.94726 -0.88543,3e-5 -1.64389,-0.31573 -2.2754,-0.94726 -0.63151,-0.63149 -0.94726,-1.38995 -0.94726,-2.27539 0,-0.88539 0.31575,-1.64386 0.94726,-2.27539 0.63151,-0.63149 1.38997,-0.94724 2.2754,-0.94727 z m -3.32032,8.69141 5.19532,0 -2.53907,18.80859 c -0.48177,3.54167 -0.97331,5.91145 -1.47461,7.10938 -0.5013,1.19791 -1.20768,2.10611 -2.11914,2.7246 -0.91146,0.61849 -1.95963,0.92773 -3.14453,0.92774 -0.91146,-10e-6 -1.97916,-0.25392 -3.20312,-0.76172 l 0.625,-4.6875 c 0.58594,0.3776 1.1263,0.5664 1.62109,0.56641 0.58594,-1e-5 1.02865,-0.2474 1.32813,-0.74219 0.42968,-0.71615 0.79427,-2.20052 1.09375,-4.45313 z"
         id="path3009"
         style="font-style:oblique;font-variant:normal;font-weight:bold;font-stretch:normal;fill:#999999;font-family:Century Gothic;-inkscape-font-specification:Century Gothic Bold Oblique" />
      <path
         d="m -726.83515,579.76771 4.88281,0 4.86328,20.01953 9.92187,-20.01953 4.64844,0 0.39063,28.73047 -5.03907,0 -0.23437,-17.1875 -8.51563,17.1875 -4.12109,0 -4.375,-18.04688 -4.58984,18.04688 -5.15625,0 z"
         id="path3011"
         style="font-style:oblique;font-variant:normal;font-weight:bold;font-stretch:normal;font-family:Century Gothic;-inkscape-font-specification:Century Gothic Bold Oblique" />
      <path
         d="m -693.35859,579.04505 5.13672,0 -2.08985,16.28838 8.39844,-8.08525 3.02639,3.51211 -6.62014,5.96054 5.93201,11.77735 -6.25,0 -4.93592,-9.64926 -1.38671,9.64926 -5.11719,0 z"
         id="path3013"
         style="font-style:oblique;font-variant:normal;font-weight:bold;font-stretch:normal;fill:#999999;font-family:Century Gothic;-inkscape-font-specification:Century Gothic Bold Oblique" />
      <path
         d="m -672.49269,616.27161 -8.53515,0 0.68359,-5.16319 3.14453,0 3.82813,-28.28624 -3.16406,0 0.68359,-5.14295 8.55469,0 z"
         id="path3015"
         style="font-style:oblique;font-variant:normal;font-weight:bold;font-stretch:normal;fill:#ffff00;font-family:Century Gothic;-inkscape-font-specification:Century Gothic Bold Oblique" />
    </g>
  </g>
</svg>
