<svg xmlns="http://www.w3.org/2000/svg" viewBox="0 0 160 29" width="640" height="116">
    <path style="fill:#232328;" d="M61.3,23.1c0,1.5-0.6,2.7-1.8,2.7s-1.8-1.2-1.8-2.7h-4.3c0,3.3,2.4,5.9,6.2,5.9s6.2-2.6,6.2-5.8V9.5h-4.3V23.1z"/>
    <polygon style="fill:#232328;" points="97.2,17.6 94.8,9.5 90.8,9.5 88.4,17.6 85.9,9.5 77.3,9.5 73.1,15.3 73.1,4 68.7,4 68.7,23.1 73.1,23.1 73.1,17.4 77.3,23.1 82.4,23.1 77.1,16.3 81.8,10.4 86.5,23.1 90,23.1 92.8,14.4 95.6,23.1 99.1,23.1 104.2,9.5 99.7,9.5"/>
    <rect x="53.3" y="9.5" style="fill:#232328;" width="4.3" height="10.7"/>
    <polygon style="fill:#232328;" points="46.7,9.5 42.5,15.3 42.5,4 38.2,4 38.2,23.1 42.5,23.1 42.5,17.4 46.7,23.1 51.8,23.1 46.5,16.3 51.9,9.5"/>
    <path style="fill:#232328;" d="M113.5,23.1c0,1.5-0.6,2.7-1.8,2.7s-1.8-1.2-1.8-2.7h-4.3c0,3.3,2.4,5.9,6.2,5.9s6.2-2.6,6.2-5.8V9.5h-4.3 L113.5,23.1z"/>
    <path style="fill:#232328;" d="M140.9,9.1c-4.7,0-7.2,3.2-7.2,7.2c0,4.2,2.6,7.2,7.4,7.2c3.9,0,6.3-2.1,6.7-4.7h-4.2 c-0.4,1.1-1.4,1.7-2.5,1.6c-2.3,0-2.9-1.4-3-3h9.8c0.1-0.7,0.2-1.3,0.1-2l0,0C147.9,12,145.2,9.1,140.9,9.1z M137.9,14.9 C137.9,14.9,137.9,14.9,137.9,14.9c0-1.6,1.3-2.9,2.9-2.9c1.6,0,2.9,1.3,2.9,2.9H137.9z"/>
    <path style="fill:#232328;" d="M158.7,9.3L158.7,9.3c-1.7,0-3.3,0.9-4.2,2.4V9.5h-4.3v13.7h4.3v-5.3c0-3.3,1.6-4.6,3.9-4.6 c0.5,0,1,0.1,1.5,0.2V9.5C159.6,9.3,159.1,9.2,158.7,9.3z"/>
    <polygon style="fill:#232328;" points="120.3,9.5 120.3,13.2 125.9,13.2 119.9,23.1 132.4,23.1 132.4,19.5 126.6,19.5 132.6,9.5"/>
    <rect x="105.5" y="9.5" style="fill:#232328;" width="4.3" height="10.7"/>
    <circle style="fill:#FFFFFF;" cx="14.5" cy="14.5" r="14.5"/>
    <path style="fill:#80D5E2;" d="M19.1,16.7L19.1,16.7c-1.3,2.5-4.3,3.5-6.8,2.3c-2.5-1.3-3.5-4.3-2.3-6.8c0.1-0.2,0.2-0.3,0.3-0.5 c-1.9-0.6-3.8-1-5.8-1.2c-2.2,5.6,0.5,11.9,6.1,14.1c4.5,1.8,9.6,0.4,12.6-3.5C21.9,19.5,20.6,18,19.1,16.7z"/>
    <path style="fill:#00ABC4;" d="M23.1,7.9c0.6,2-0.6,4.2-2.7,4.7c-0.3,0.1-0.7,0.1-1,0.1v0c0,0-0.1,0-0.1,0c0.5,1.3,0.4,2.7-0.2,4 c1.5,1.3,2.8,2.8,4,4.4C26.1,17.2,26.1,11.8,23.1,7.9z"/>
    <path style="fill:#00ABC4;" d="M5.1,9.1C4.8,9.6,4.6,10,4.4,10.5c2,0.2,3.9,0.6,5.8,1.2c1.2-1.8,3.3-2.6,5.3-2.2c-0.4-2.1,1.1-4.1,3.1-4.4 c0.4-0.1,0.8-0.1,1.1,0C14.7,2.1,8,3.9,5.1,9.1z"/>
    <path d="M19.3,12.7c-1.9,0-3.4-1.4-3.7-3.2c-2.8-0.6-5.5,1.1-6.1,3.9s1.1,5.5,3.9,6.1c2.8,0.6,5.5-1.1,6.1-3.9 C19.7,14.7,19.6,13.7,19.3,12.7z"/>
</svg>
