<svg width="139" height="100" viewBox="0 0 139 100" fill="none" xmlns="http://www.w3.org/2000/svg">
                        <path d="M130.403 36.8606C129.238 36.5872 128.026 37.0804 127.382 38.0902C120.826 48.3776 115.131 57.0515 113.793 57.6697C111.643 58.6627 111.015 56.5294 111.122 52.4892C111.476 39.158 119.892 5.96837 111.49 1.05341C106.092 -2.10421 101.132 2.47936 98.0094 6.57534C89.1089 18.2496 66.6608 56.3531 63.8111 57.6697C61.6611 58.6627 61.0318 56.5294 61.1389 52.4892C61.4926 39.158 69.9066 5.96837 61.5048 1.05341C56.1068 -2.10421 51.1472 2.47936 48.0242 6.57534C39.1237 18.2496 16.6756 56.3531 13.8259 57.6697C11.6758 58.6627 11.0476 56.5294 11.1547 52.4892C11.2451 49.0894 11.8744 44.3753 12.6164 39.1636C12.728 38.3781 12.015 37.7253 11.2429 37.9061L3.83307 39.6445C2.7173 39.9055 1.87155 40.8171 1.69191 41.9485C1.12957 45.4978 0.597346 49.076 0.289395 52.488C-0.537389 61.6619 0.0840933 70.0424 6.48525 72.7269C16.4781 76.9189 25.7445 59.5631 30.4173 52.2816C31.1738 51.1023 46.1073 27.2996 50.3595 21.7018C50.7076 21.2443 51.0802 20.7902 51.5678 20.4521C52.948 19.4357 54.5146 20.1654 54.5659 21.925C54.6976 26.4059 53.3129 31.4503 52.7026 35.4514C51.8546 41.0191 50.7701 46.9683 50.2724 52.488C49.4456 61.6619 50.0694 70.0424 56.4705 72.7269C66.4633 76.9189 75.7275 59.562 80.4026 52.2816C81.1602 51.1023 96.0925 27.2996 100.345 21.7018C100.693 21.2443 101.065 20.7902 101.553 20.4521C102.933 19.4357 104.5 20.1654 104.551 21.925C104.683 26.4059 103.298 31.4503 102.688 35.4514C101.84 41.0191 100.754 46.9683 100.257 52.488C99.4298 61.6619 100.051 70.0424 106.452 72.7269C116.445 76.9189 125.544 59.4527 130.385 52.2816C130.721 51.7293 134.093 46.3636 138.043 40.1956C138.463 39.5407 138.109 38.667 137.351 38.4896L130.402 36.8595L130.403 36.8606Z" fill="#0E1C40"></path>
                        <path d="M4.0484 87.7742H6.76084L9.1363 94.7522H9.21776L11.5798 87.7742H14.3068V97.6141H12.5651V93.3764L12.5918 89.6509H12.497L9.89168 97.6141H8.47465L5.85595 89.6509H5.74772L5.78789 93.3898V97.6141H4.04617V87.7742H4.0484Z" fill="#0E1C40"></path>
                        <path d="M15.8756 94.0638C15.8756 91.7698 17.2257 90.2981 19.3311 90.2981C21.7736 90.2981 22.9351 92.0532 22.6918 94.3874H17.5359C17.5359 95.6962 18.2779 96.4393 19.3981 96.4393C20.2617 96.4393 20.8966 96.0209 21.0583 95.3726H22.6639C22.462 96.7896 21.1521 97.7347 19.3981 97.7347C17.1978 97.7347 15.8756 96.2775 15.8756 94.0638ZM17.5493 93.2538H21.045C20.9914 92.1201 20.2762 91.5935 19.3311 91.5935C18.3191 91.5935 17.6575 92.2284 17.5493 93.2538Z" fill="#0E1C40"></path>
                        <path d="M23.6914 94.0237C23.6914 91.5813 24.8518 90.2982 26.5801 90.2982C27.7405 90.2982 28.6041 90.8784 28.9556 91.7554H29.0504V87.7732H30.7374L30.7241 97.6131H29.104L29.0504 96.2765H28.9556C28.6041 97.1534 27.7405 97.7336 26.5801 97.7336C24.8529 97.7336 23.6914 96.4516 23.6914 94.0215V94.0237ZM29.0225 94.3886V93.6466C29.0225 92.6212 28.4155 91.6761 27.2139 91.6761C26.1338 91.6761 25.4052 92.446 25.4052 94.0248C25.4052 95.6036 26.1338 96.3601 27.2139 96.3601C28.4155 96.3601 29.0225 95.4017 29.0225 94.3897V94.3886Z" fill="#0E1C40"></path>
                        <path d="M32.4902 87.7742H34.1772V89.421H32.4902V87.7742ZM32.4902 90.433H34.1772V97.613H32.4902V90.433Z" fill="#0E1C40"></path>
                        <path d="M35.5517 94.0638C35.5517 91.7698 36.9018 90.2981 39.0073 90.2981C41.4497 90.2981 42.6112 92.0532 42.3679 94.3874H37.212C37.212 95.6962 37.954 96.4393 39.0742 96.4393C39.9378 96.4393 40.5727 96.0209 40.7345 95.3726H42.3401C42.1381 96.7896 40.8282 97.7347 39.0742 97.7347C36.8739 97.7347 35.5517 96.2775 35.5517 94.0638ZM37.2254 93.2538H40.7211C40.6675 92.1201 39.9512 91.5935 39.0073 91.5935C37.9953 91.5935 37.3336 92.2284 37.2254 93.2538Z" fill="#0E1C40"></path>
                        <path d="M43.7435 90.4331H45.377L45.4305 91.7966H45.512C45.8902 90.8113 46.794 90.2981 47.7926 90.2981C48.7912 90.2981 49.7229 90.7567 50.1011 91.945H50.2093C50.5742 90.8515 51.546 90.2981 52.6518 90.2981C54.0554 90.2981 55.1355 91.1349 55.1355 93.3084V97.6142H53.4484V93.6733C53.4484 92.3232 53.0032 91.6895 52.0046 91.6895C50.9245 91.6895 50.2908 92.5798 50.2908 93.6599V97.6142H48.5904V93.6733C48.5904 92.3232 48.1452 91.6895 47.1599 91.6895C46.0665 91.6895 45.4327 92.5798 45.4327 93.6599V97.6142H43.7457V90.4342L43.7435 90.4331Z" fill="#0E1C40"></path>
                        <path d="M56.2869 98.4778H57.0836C57.704 98.4778 58.0287 98.2346 58.2306 97.6945L58.4739 97.0742L55.6934 90.4331H57.5422L59.0139 94.5358L59.2839 95.3458H59.352L59.5952 94.5358L60.9854 90.4331H62.7807L59.8786 98.0862C59.3787 99.463 58.5832 99.868 57.3949 99.868H56.2881V98.4778H56.2869Z" fill="#0E1C40"></path>
                        <path d="M63.7256 90.4331H65.3457L65.4137 91.7966H65.4952C65.9002 90.8113 66.8174 90.2981 67.8573 90.2981C69.3145 90.2981 70.4079 91.1349 70.4079 93.3084V97.6142H68.7209V93.6733C68.7209 92.3232 68.2623 91.6895 67.209 91.6895C66.0754 91.6895 65.4137 92.5798 65.4137 93.6599V97.6142H63.7267V90.4342L63.7256 90.4331Z" fill="#0E1C40"></path>
                        <path d="M71.7448 94.0237C71.7448 91.5813 72.9052 90.2982 74.6335 90.2982C75.7939 90.2982 76.6575 90.8784 77.009 91.7554H77.1038V87.7732H78.7909L78.7775 97.6131H77.1574L77.1038 96.2765H77.009C76.6575 97.1534 75.7939 97.7336 74.6335 97.7336C72.9063 97.7336 71.7448 96.4516 71.7448 94.0215V94.0237ZM77.0759 94.3886V93.6466C77.0759 92.6212 76.4689 91.6761 75.2673 91.6761C74.1872 91.6761 73.4586 92.446 73.4586 94.0248C73.4586 95.6036 74.1872 96.3601 75.2673 96.3601C76.4689 96.3601 77.0759 95.4017 77.0759 94.3897V94.3886Z" fill="#0E1C40"></path>
                        <path d="M80.5436 87.7742H82.2307V89.421H80.5436V87.7742ZM80.5436 90.433H82.2307V97.613H80.5436V90.433Z" fill="#0E1C40"></path>
                        <path d="M83.9276 97.8842H85.5477C85.6559 98.4376 86.196 98.788 87.0194 98.788C88.2345 98.788 88.8147 98.2881 88.8147 97.1277V95.8055H88.7198C88.3963 96.6423 87.5461 97.1958 86.4526 97.1958C84.7254 97.1958 83.6052 95.9807 83.6052 93.7402C83.6052 91.4998 84.7522 90.2981 86.4805 90.2981C87.5606 90.2981 88.3974 90.8381 88.721 91.6616H88.8158L88.8694 90.4331H90.5028V96.8577C90.5028 99.1796 89.0858 100.003 86.9804 100.003C85.1717 100.003 84.0515 99.1796 83.9298 97.8842H83.9276ZM88.8136 94.172V93.3084C88.7734 92.4582 88.1932 91.608 87.073 91.608C85.9527 91.608 85.3179 92.35 85.3179 93.7402C85.3179 95.1305 86.0197 95.8859 87.0596 95.8859C88.1932 95.8859 88.7868 95.0356 88.8147 94.172H88.8136Z" fill="#0E1C40"></path>
                        <path d="M92.2282 87.7742H93.9153V91.7965H93.9967C94.4017 90.8113 95.32 90.298 96.3588 90.298C97.816 90.298 98.9094 91.1349 98.9094 93.3084V97.6141H97.2224V93.6732C97.2224 92.3232 96.7638 91.6894 95.7105 91.6894C94.5769 91.6894 93.9153 92.5798 93.9153 93.6598V97.6141H92.2282V87.7742Z" fill="#0E1C40"></path>
                        <path d="M100.197 94.0638C100.197 91.7698 101.547 90.2981 103.652 90.2981C106.095 90.2981 107.256 92.0532 107.013 94.3874H101.857C101.857 95.6962 102.599 96.4393 103.719 96.4393C104.583 96.4393 105.218 96.0209 105.38 95.3726H106.985C106.783 96.7896 105.473 97.7347 103.719 97.7347C101.519 97.7347 100.197 96.2775 100.197 94.0638ZM101.871 93.2538H105.366C105.313 92.1201 104.596 91.5935 103.652 91.5935C102.64 91.5935 101.979 92.2284 101.871 93.2538Z" fill="#0E1C40"></path>
                        <path d="M108.96 95.9808V91.7967H107.637V90.4332H108.96V88.4081L110.634 88.2329V90.4332H112.159V91.7967H110.634V95.6706C110.634 96.1292 110.822 96.2374 111.241 96.2374H112.159V97.6143H110.66C109.324 97.6143 108.96 97.0073 108.96 95.9808Z" fill="#0E1C40"></path>
                        <path d="M112.848 94.0638C112.848 91.7698 114.198 90.2981 116.304 90.2981C118.746 90.2981 119.908 92.0532 119.665 94.3874H114.509C114.509 95.6962 115.251 96.4393 116.371 96.4393C117.234 96.4393 117.869 96.0209 118.031 95.3726H119.637C119.435 96.7896 118.125 97.7347 116.371 97.7347C114.171 97.7347 112.848 96.2775 112.848 94.0638ZM114.522 93.2538H118.018C117.964 92.1201 117.248 91.5935 116.304 91.5935C115.292 91.5935 114.63 92.2284 114.522 93.2538Z" fill="#0E1C40"></path>
                        <path d="M121.04 90.4331H122.66L122.728 91.7966H122.81C123.215 90.8113 124.133 90.2981 125.172 90.2981C126.629 90.2981 127.722 91.1349 127.722 93.3084V97.6142H126.035V93.6733C126.035 92.3232 125.577 91.6895 124.523 91.6895C123.39 91.6895 122.728 92.5798 122.728 93.6599V97.6142H121.041V90.4342L121.04 90.4331Z" fill="#0E1C40"></path>
                    </svg>