<svg xmlns="http://www.w3.org/2000/svg" version="1.1" viewBox="0 0 1448 1448">
<g stroke-width="2.00" fill="none" stroke-linecap="butt">
<path stroke="#808080" vector-effect="non-scaling-stroke" d="   M 113.70 340.20   C 114.37 342.35 114.58 344.89 115.04 347.21   Q 148.62 514.98 182.27 682.97   A 1.28 1.26 84.1 0 0 183.51 683.99   L 272.97 683.99   Q 273.69 683.99 273.84 683.29   L 348.02 344.72   Q 348.77 341.32 348.77 344.80   L 348.78 683.26   A 0.74 0.73 90.0 0 0 349.51 684.00   L 429.43 683.98   A 0.41 0.40 -90.0 0 0 429.83 683.57   L 429.83 247.57   A 0.51 0.51 0.0 0 0 429.32 247.06   L 287.25 247.05   Q 286.80 247.05 286.72 247.50   L 231.64 555.61   Q 231.28 557.58 230.93 555.61   L 175.84 247.62   A 0.67 0.67 0.0 0 0 175.18 247.07   L 32.48 247.05   A 0.47 0.47 0.0 0 0 32.01 247.52   L 32.00 683.25   A 0.75 0.74 -0.0 0 0 32.75 683.99   L 112.53 683.99   A 0.65 0.65 0.0 0 0 113.18 683.34   L 113.14 340.29   Q 113.14 338.39 113.70 340.20"/>
<path stroke="#808080" vector-effect="non-scaling-stroke" d="   M 571.55 420.28   A 0.49 0.49 0.0 0 1 571.06 419.79   L 571.03 320.49   A 0.49 0.49 0.0 0 1 571.52 320.00   L 682.99 320.00   A 0.49 0.49 0.0 0 0 683.48 319.51   L 683.48 247.55   A 0.49 0.49 0.0 0 0 682.99 247.06   L 480.82 247.06   A 0.49 0.49 0.0 0 0 480.33 247.55   L 480.35 683.49   A 0.49 0.49 0.0 0 0 480.84 683.98   L 688.76 683.99   A 0.49 0.49 0.0 0 0 689.25 683.50   L 689.25 611.53   A 0.49 0.49 0.0 0 0 688.76 611.04   L 571.52 611.04   A 0.49 0.49 0.0 0 1 571.03 610.55   L 571.06 493.51   A 0.49 0.49 0.0 0 1 571.55 493.02   L 679.94 493.02   A 0.49 0.49 0.0 0 0 680.43 492.53   L 680.42 420.76   A 0.49 0.49 0.0 0 0 679.93 420.27   L 571.55 420.28"/>
<path stroke="#808080" vector-effect="non-scaling-stroke" d="   M 937.79 670.71   C 996.80 645.56 1024.74 589.57 1024.95 526.71   Q 1025.09 481.47 1024.92 402.51   C 1024.85 370.48 1018.07 337.65 1001.20 310.58   C 971.58 263.01 919.18 246.95 865.68 247.03   Q 802.65 247.12 733.91 247.02   Q 733.45 247.02 733.45 247.48   L 733.44 683.44   Q 733.44 683.98 733.98 683.98   Q 805.26 684.04 869.89 683.93   C 892.58 683.90 917.01 679.57 937.79 670.71"/>
<path stroke="#808080" vector-effect="non-scaling-stroke" d="   M 1072.46 683.48   A 0.50 0.50 0.0 0 0 1072.96 683.98   L 1162.42 684.00   A 0.50 0.50 0.0 0 0 1162.92 683.50   L 1162.92 247.56   A 0.50 0.50 0.0 0 0 1162.42 247.06   L 1072.95 247.05   A 0.50 0.50 0.0 0 0 1072.45 247.55   L 1072.46 683.48"/>
<path stroke="#808080" vector-effect="non-scaling-stroke" d="   M 1303.95 320.41   A 0.41 0.41 0.0 0 1 1304.36 320.00   L 1416.09 320.00   A 0.41 0.41 0.0 0 0 1416.50 319.59   L 1416.50 247.47   A 0.41 0.41 0.0 0 0 1416.09 247.06   L 1213.88 247.05   A 0.41 0.41 0.0 0 0 1213.47 247.46   L 1213.47 683.58   A 0.41 0.41 0.0 0 0 1213.88 683.99   L 1421.75 683.99   A 0.41 0.41 0.0 0 0 1422.16 683.58   L 1422.15 611.45   A 0.41 0.41 0.0 0 0 1421.74 611.04   L 1304.36 611.04   A 0.41 0.41 0.0 0 1 1303.95 610.63   L 1303.95 493.43   A 0.41 0.41 0.0 0 1 1304.36 493.02   L 1412.84 493.02   A 0.41 0.41 0.0 0 0 1413.25 492.61   L 1413.25 420.68   A 0.41 0.41 0.0 0 0 1412.84 420.27   L 1304.36 420.27   A 0.41 0.41 0.0 0 1 1303.95 419.86   L 1303.95 320.41"/>
<path stroke="#808080" vector-effect="non-scaling-stroke" d="   M 408.02 1075.00   Q 411.44 1074.54 415.86 1074.53   Q 450.57 1074.52 484.78 1074.62   Q 487.25 1074.63 490.00 1074.82   Q 491.80 1074.94 492.13 1076.68   Q 500.59 1121.03 508.93 1164.76   Q 509.03 1165.28 509.55 1165.28   L 596.29 1165.27   A 0.46 0.46 0.0 0 0 596.74 1164.71   L 517.74 803.50   A 1.17 1.17 0.0 0 1 518.07 802.39   Q 527.27 793.57 529.41 781.38   C 530.80 773.49 531.23 764.41 530.09 756.51   C 526.02 728.26 500.42 711.14 474.62 705.16   Q 444.06 698.08 414.22 706.96   C 389.31 714.37 366.74 732.43 365.04 760.26   C 364.20 773.95 366.76 787.85 374.48 799.04   C 375.39 800.35 376.62 801.41 377.51 802.69   Q 377.83 803.14 377.72 803.68   L 302.32 1164.68   Q 302.20 1165.27 302.81 1165.27   L 389.74 1165.27   A 0.32 0.31 -84.5 0 0 390.05 1165.01   L 407.07 1075.90   Q 407.22 1075.11 408.02 1075.00"/>
<path stroke="#808080" vector-effect="non-scaling-stroke" d="   M 115.55 987.00   L 132.14 986.97   A 0.94 0.94 0.0 0 1 133.03 987.60   L 195.19 1165.23   A 0.81 0.80 -9.7 0 0 195.95 1165.76   L 289.71 1165.76   Q 290.35 1165.76 290.11 1165.17   L 213.82 974.71   A 0.74 0.73 -22.3 0 1 214.22 973.76   C 246.83 960.44 268.46 930.48 276.38 896.47   Q 283.49 865.93 275.17 833.09   C 265.50 794.86 237.85 766.96 199.48 757.78   Q 183.44 753.94 166.75 753.92   Q 99.89 753.84 32.45 753.85   A 0.44 0.43 0.0 0 0 32.01 754.28   L 32.00 1165.26   A 0.50 0.50 0.0 0 0 32.50 1165.76   L 114.67 1165.77   Q 115.11 1165.77 115.11 1165.33   L 115.10 987.45   A 0.45 0.45 0.0 0 1 115.55 987.00"/>
<path stroke="#808080" vector-effect="non-scaling-stroke" d="   M 892.35 1074.19   Q 901.40 1047.86 901.47 1018.48   Q 901.64 949.12 901.41 897.66   Q 901.31 875.50 895.70 853.45   C 887.37 820.71 869.40 793.06 840.36 775.39   C 815.50 760.27 784.90 754.00 755.57 753.93   Q 692.98 753.78 627.28 753.86   Q 626.62 753.86 626.62 754.53   L 626.63 1165.03   Q 626.63 1165.78 627.38 1165.78   Q 688.56 1165.72 750.73 1165.80   Q 761.36 1165.82 770.47 1165.07   C 827.39 1160.42 873.47 1129.16 892.35 1074.19"/>
<path stroke="#808080" vector-effect="non-scaling-stroke" d="   M 1031.72 822.98   A 0.36 0.36 0.0 0 1 1032.08 822.62   L 1137.38 822.64   A 0.36 0.36 0.0 0 0 1137.74 822.28   L 1137.74 754.22   A 0.36 0.36 0.0 0 0 1137.38 753.86   L 946.62 753.84   A 0.36 0.36 0.0 0 0 946.26 754.20   L 946.26 1165.40   A 0.36 0.36 0.0 0 0 946.62 1165.76   L 1142.65 1165.77   A 0.36 0.36 0.0 0 0 1143.01 1165.41   L 1143.01 1097.60   A 0.36 0.36 0.0 0 0 1142.65 1097.24   L 1032.08 1097.25   A 0.36 0.36 0.0 0 1 1031.72 1096.89   L 1031.72 986.22   A 0.36 0.36 0.0 0 1 1032.08 985.86   L 1134.33 985.90   A 0.36 0.36 0.0 0 0 1134.69 985.54   L 1134.67 917.51   A 0.36 0.36 0.0 0 0 1134.31 917.15   L 1032.08 917.19   A 0.36 0.36 0.0 0 1 1031.72 916.83   L 1031.72 822.98"/>
<path stroke="#808080" vector-effect="non-scaling-stroke" d="   M 1251.73 822.63   A 0.49 0.49 0.0 0 1 1252.22 823.12   L 1252.23 1165.27   A 0.49 0.49 0.0 0 0 1252.72 1165.76   L 1337.06 1165.77   A 0.49 0.49 0.0 0 0 1337.55 1165.28   L 1337.54 823.12   A 0.49 0.49 0.0 0 1 1338.03 822.63   L 1421.67 822.63   A 0.49 0.49 0.0 0 0 1422.16 822.14   L 1422.14 754.34   A 0.49 0.49 0.0 0 0 1421.65 753.85   L 1167.39 753.85   A 0.49 0.49 0.0 0 0 1166.90 754.34   L 1166.87 822.13   A 0.49 0.49 0.0 0 0 1167.36 822.62   L 1251.73 822.63"/>
<path stroke="#808080" vector-effect="non-scaling-stroke" d="   M 548.33 1227.20   C 538.67 1223.50 527.17 1222.83 517.22 1224.21   C 499.53 1226.66 485.09 1236.66 478.43 1253.06   Q 474.05 1263.86 473.86 1274.48   Q 473.53 1292.75 473.71 1325.46   C 473.80 1341.20 478.77 1356.38 490.54 1366.99   A 0.95 0.93 -57.7 0 1 490.77 1368.04   L 484.57 1383.02   A 0.68 0.68 0.0 0 0 485.21 1383.96   L 497.82 1383.84   A 1.21 1.21 0.0 0 0 498.93 1383.08   L 502.01 1375.49   A 1.01 1.00 21.5 0 1 503.30 1374.93   Q 516.67 1380.05 532.83 1378.81   C 563.38 1376.47 579.53 1354.66 579.85 1325.19   Q 580.10 1302.25 579.84 1277.07   C 579.68 1260.62 574.04 1244.66 561.16 1234.27   A 0.71 0.71 0.0 0 1 560.95 1233.45   L 567.77 1216.78   A 0.52 0.52 0.0 0 0 567.29 1216.07   L 554.24 1216.19   A 0.96 0.95 -79.2 0 0 553.35 1216.80   L 549.40 1226.74   Q 549.09 1227.50 548.33 1227.20"/>
<path stroke="#808080" vector-effect="non-scaling-stroke" d="   M 125.61 1357.22   C 132.57 1368.84 144.53 1375.76 157.83 1377.93   C 185.06 1382.38 214.32 1374.37 221.92 1344.69   Q 223.97 1336.69 224.08 1330.58   Q 224.47 1309.06 224.23 1276.18   C 224.04 1249.17 210.89 1229.14 183.52 1224.59   C 155.84 1220.00 127.23 1229.53 120.01 1259.77   Q 118.13 1267.63 118.08 1274.24   Q 117.88 1299.95 118.05 1326.07   C 118.12 1336.97 120.00 1347.87 125.61 1357.22"/>
<path stroke="#808080" vector-effect="non-scaling-stroke" d="   M 942.28 1313.30   L 955.50 1313.31   Q 956.05 1313.31 956.05 1312.76   L 956.03 1288.20   A 0.40 0.40 0.0 0 0 955.63 1287.80   L 912.53 1287.78   A 0.47 0.47 0.0 0 0 912.06 1288.25   Q 911.95 1310.42 912.11 1333.20   Q 912.16 1340.95 910.83 1344.56   C 907.64 1353.21 896.64 1355.90 888.76 1351.96   Q 880.91 1348.04 880.59 1338.43   Q 880.33 1330.65 880.81 1323.52   C 881.46 1313.77 887.35 1312.85 895.61 1313.38   Q 896.29 1313.42 896.29 1312.75   L 896.29 1288.30   A 0.52 0.52 0.0 0 0 895.77 1287.78   C 892.78 1287.74 889.36 1288.29 886.61 1286.94   C 882.71 1285.01 881.63 1280.18 881.53 1276.11   Q 881.34 1268.60 881.61 1262.15   C 881.96 1253.67 888.00 1249.38 895.92 1248.90   C 904.76 1248.36 911.37 1254.29 911.89 1263.26   Q 912.14 1267.52 911.98 1271.89   Q 911.96 1272.45 912.52 1272.45   L 941.40 1272.46   A 0.28 0.28 0.0 0 0 941.68 1272.19   Q 942.06 1265.78 941.33 1259.30   C 938.47 1233.92 918.41 1223.05 894.81 1223.56   C 874.32 1224.00 855.55 1231.82 850.67 1253.49   C 849.12 1260.39 849.31 1269.66 849.90 1276.75   Q 851.08 1290.81 862.43 1298.96   A 0.36 0.36 0.0 0 1 862.41 1299.56   C 852.82 1305.43 849.24 1315.28 848.76 1326.40   Q 848.43 1334.24 848.93 1340.79   C 850.68 1363.63 865.52 1376.25 887.04 1378.57   C 917.14 1381.83 941.67 1369.70 941.74 1335.95   Q 941.76 1324.62 941.73 1313.85   Q 941.72 1313.30 942.28 1313.30"/>
<path stroke="#808080" vector-effect="non-scaling-stroke" d="   M 1300.01 1323.18   Q 1299.96 1331.64 1299.95 1339.51   C 1299.95 1346.58 1297.54 1352.00 1289.76 1353.25   C 1284.17 1354.14 1276.64 1354.45 1272.00 1350.73   C 1267.44 1347.08 1266.19 1339.42 1266.16 1333.82   Q 1266.02 1304.36 1266.11 1270.29   C 1266.14 1260.58 1268.07 1250.04 1279.86 1249.04   Q 1284.55 1248.64 1289.41 1249.28   C 1298.07 1250.41 1299.69 1257.60 1299.88 1264.92   Q 1300.04 1271.14 1299.98 1277.75   A 0.48 0.47 -89.4 0 0 1300.45 1278.24   L 1332.22 1278.26   Q 1332.77 1278.26 1332.79 1277.72   Q 1333.21 1269.11 1331.33 1259.35   C 1326.83 1235.93 1310.46 1225.14 1288.03 1223.70   C 1262.21 1222.06 1242.02 1233.17 1235.54 1259.01   Q 1233.49 1267.20 1233.42 1274.76   Q 1233.19 1300.80 1233.41 1327.62   C 1233.61 1353.25 1244.99 1374.49 1272.67 1378.33   Q 1288.44 1380.51 1302.37 1376.62   C 1324.94 1370.32 1332.87 1352.00 1332.88 1330.09   Q 1332.89 1314.53 1332.88 1298.89   Q 1332.88 1298.53 1332.51 1298.53   L 1285.75 1298.53   A 0.48 0.48 0.0 0 0 1285.27 1299.01   L 1285.26 1321.70   Q 1285.26 1322.38 1285.95 1322.39   L 1299.30 1322.46   Q 1300.01 1322.47 1300.01 1323.18"/>
<path stroke="#808080" vector-effect="non-scaling-stroke" d="   M 64.12 1285.49   A 0.39 0.39 0.0 0 1 63.73 1285.10   L 63.73 1250.89   A 0.39 0.39 0.0 0 1 64.12 1250.50   L 112.36 1250.50   A 0.39 0.39 0.0 0 0 112.75 1250.11   L 112.75 1225.39   A 0.39 0.39 0.0 0 0 112.36 1225.00   L 32.39 1225.00   A 0.39 0.39 0.0 0 0 32.00 1225.39   L 31.99 1377.17   A 0.39 0.39 0.0 0 0 32.38 1377.56   L 63.34 1377.58   A 0.39 0.39 0.0 0 0 63.73 1377.19   L 63.73 1311.37   A 0.39 0.39 0.0 0 1 64.12 1310.98   L 102.39 1311.00   A 0.39 0.39 0.0 0 0 102.78 1310.61   L 102.78 1285.87   A 0.39 0.39 0.0 0 0 102.39 1285.48   L 64.12 1285.49"/>
<path stroke="#808080" vector-effect="non-scaling-stroke" d="   M 271.75 1311.31   L 277.23 1311.30   Q 277.87 1311.30 278.08 1311.91   L 300.89 1377.13   A 0.64 0.63 80.3 0 0 301.49 1377.56   L 335.72 1377.58   A 0.41 0.41 0.0 0 0 336.10 1377.01   L 308.27 1307.54   Q 307.93 1306.71 308.75 1306.33   C 327.91 1297.53 335.45 1275.81 331.03 1256.00   Q 326.09 1233.85 304.25 1226.94   C 299.70 1225.50 293.77 1225.05 289.00 1225.04   Q 269.64 1224.97 241.26 1225.01   Q 240.73 1225.01 240.73 1225.54   L 240.74 1377.02   Q 240.74 1377.56 241.27 1377.56   L 270.97 1377.57   Q 271.50 1377.57 271.50 1377.03   L 271.50 1311.56   A 0.25 0.25 0.0 0 1 271.75 1311.31"/>
<path stroke="#808080" vector-effect="non-scaling-stroke" d="   M 440.58 1297.20   C 459.87 1291.24 462.83 1266.36 457.61 1250.34   C 451.65 1232.03 436.50 1225.08 418.40 1225.03   Q 396.15 1224.97 374.55 1225.02   A 0.25 0.24 -0.0 0 0 374.30 1225.26   L 374.32 1377.02   Q 374.32 1377.53 374.82 1377.53   Q 399.88 1377.67 424.63 1377.48   C 454.12 1377.25 466.91 1354.49 464.76 1327.80   C 463.48 1311.96 454.77 1303.79 440.55 1297.97   A 0.41 0.41 0.0 0 1 440.58 1297.20"/>
<path stroke="#808080" vector-effect="non-scaling-stroke" d="   M 664.07 1306.50   C 683.23 1297.50 691.33 1276.23 686.61 1255.93   C 681.73 1234.93 665.73 1225.16 645.12 1225.05   Q 622.19 1224.94 596.66 1225.02   A 0.45 0.45 0.0 0 0 596.21 1225.47   L 596.26 1377.28   A 0.28 0.27 90.0 0 0 596.53 1377.56   L 626.68 1377.57   A 0.51 0.50 0.0 0 0 627.19 1377.07   L 627.19 1312.04   Q 627.19 1311.27 627.96 1311.28   L 632.67 1311.34   A 1.20 1.19 80.5 0 1 633.78 1312.14   L 656.41 1376.81   A 1.12 1.12 0.0 0 0 657.47 1377.56   L 691.42 1377.57   A 0.37 0.36 -10.9 0 0 691.76 1377.07   L 663.78 1307.24   A 0.58 0.58 0.0 0 1 664.07 1306.50"/>
<path stroke="#808080" vector-effect="non-scaling-stroke" d="   M 777.00 1225.00   A 0.31 0.31 0.0 0 0 776.69 1225.31   L 776.74 1321.47   A 0.31 0.31 0.0 0 1 776.14 1321.57   L 740.92 1225.22   A 0.31 0.31 0.0 0 0 740.63 1225.02   L 703.12 1224.99   A 0.31 0.31 0.0 0 0 702.81 1225.30   L 702.80 1377.26   A 0.31 0.31 0.0 0 0 703.11 1377.57   L 731.16 1377.56   A 0.31 0.31 0.0 0 0 731.47 1377.25   L 731.38 1281.36   A 0.31 0.31 0.0 0 1 731.98 1281.25   L 766.84 1377.36   A 0.31 0.31 0.0 0 0 767.13 1377.56   L 804.95 1377.57   A 0.31 0.31 0.0 0 0 805.26 1377.26   L 805.26 1225.31   A 0.31 0.31 0.0 0 0 804.95 1225.00   L 777.00 1225.00"/>
<path stroke="#808080" vector-effect="non-scaling-stroke" d="   M 994.05 1327.86   C 994.07 1353.24 1006.71 1373.63 1032.68 1377.95   C 1057.88 1382.14 1084.37 1375.92 1094.19 1349.87   C 1097.72 1340.50 1097.87 1331.08 1097.87 1321.61   Q 1097.84 1273.73 1097.96 1225.66   A 0.66 0.66 0.0 0 0 1097.30 1225.00   L 1065.50 1225.00   A 0.31 0.31 0.0 0 0 1065.19 1225.31   Q 1065.30 1280.47 1065.18 1332.71   Q 1065.17 1338.22 1063.36 1343.64   C 1060.19 1353.12 1051.06 1354.38 1042.06 1353.59   C 1029.71 1352.51 1026.80 1342.37 1026.79 1331.91   Q 1026.73 1279.58 1026.77 1225.55   A 0.55 0.55 0.0 0 0 1026.22 1225.00   L 994.46 1225.00   A 0.43 0.42 90.0 0 0 994.04 1225.43   Q 994.01 1281.72 994.05 1327.86"/>
<path stroke="#808080" vector-effect="non-scaling-stroke" d="   M 1142.90 1282.07   Q 1143.21 1280.16 1143.87 1281.98   L 1178.35 1377.06   Q 1178.53 1377.57 1179.08 1377.57   L 1216.49 1377.57   A 0.34 0.33 -90.0 0 0 1216.82 1377.23   L 1216.82 1225.25   Q 1216.82 1225.00 1216.57 1225.00   L 1188.75 1225.00   Q 1188.26 1225.00 1188.26 1225.50   L 1188.27 1320.52   Q 1188.28 1322.94 1187.44 1320.66   L 1152.71 1225.60   A 0.93 0.91 -9.9 0 0 1151.84 1225.00   L 1114.76 1225.00   Q 1114.45 1225.00 1114.45 1225.32   L 1114.45 1377.26   Q 1114.45 1377.57 1114.76 1377.57   L 1142.72 1377.55   A 0.28 0.28 0.0 0 0 1143.00 1377.28   Q 1143.19 1334.43 1142.74 1284.27   Q 1142.73 1283.09 1142.90 1282.07"/>
<path stroke="#808080" vector-effect="non-scaling-stroke" d="   M 1380.77 1250.94   A 0.43 0.43 0.0 0 1 1381.20 1250.51   L 1419.69 1250.50   A 0.43 0.43 0.0 0 0 1420.12 1250.07   L 1420.15 1225.44   A 0.43 0.43 0.0 0 0 1419.72 1225.01   L 1349.65 1225.00   A 0.43 0.43 0.0 0 0 1349.22 1225.43   L 1349.22 1377.14   A 0.43 0.43 0.0 0 0 1349.65 1377.57   L 1421.74 1377.57   A 0.43 0.43 0.0 0 0 1422.17 1377.14   L 1422.13 1352.55   A 0.43 0.43 0.0 0 0 1421.70 1352.12   L 1381.21 1352.11   A 0.43 0.43 0.0 0 1 1380.78 1351.68   L 1380.78 1311.41   A 0.43 0.43 0.0 0 1 1381.21 1310.98   L 1418.59 1310.99   A 0.43 0.43 0.0 0 0 1419.02 1310.56   L 1419.03 1285.92   A 0.43 0.43 0.0 0 0 1418.60 1285.49   L 1381.21 1285.48   A 0.43 0.43 0.0 0 1 1380.78 1285.05   L 1380.77 1250.94"/>
<path stroke="#808080" vector-effect="non-scaling-stroke" d="   M 933.23 373.07   C 927.65 340.00 902.13 320.21 869.23 320.04   Q 847.92 319.93 824.41 320.04   Q 823.93 320.05 823.93 320.52   L 823.93 610.48   Q 823.93 611.05 824.50 611.05   Q 845.48 611.02 866.49 611.06   C 897.37 611.12 923.76 596.11 931.71 565.02   Q 934.31 554.84 934.31 545.36   Q 934.26 467.99 934.34 391.31   Q 934.35 379.71 933.23 373.07"/>
<path stroke="#808080" vector-effect="non-scaling-stroke" d="   M 472.65 742.95   Q 451.16 733.03 429.44 740.87   C 418.71 744.75 407.29 752.66 407.33 764.76   C 407.36 777.45 416.64 785.55 428.19 789.35   Q 447.16 795.60 467.26 789.88   C 475.20 787.61 483.41 782.91 487.34 775.52   C 491.18 768.29 490.96 759.58 485.80 752.99   Q 480.93 746.77 472.65 742.95"/>
<path stroke="#808080" vector-effect="non-scaling-stroke" d="   M 446.37 839.06   Q 445.80 836.07 445.33 839.08   C 444.97 841.31 444.79 843.67 444.41 845.96   Q 431.25 924.66 418.12 1003.23   A 0.35 0.35 0.0 0 0 418.47 1003.64   L 476.76 1003.63   A 0.55 0.55 0.0 0 0 477.30 1002.98   L 446.37 839.06"/>
<path stroke="#808080" vector-effect="non-scaling-stroke" d="   M 199.33 860.89   C 197.90 842.35 188.23 829.62 170.29 824.54   C 152.65 819.55 133.66 820.80 115.49 820.80   A 0.39 0.38 90.0 0 0 115.11 821.19   L 115.11 919.19   A 0.27 0.27 0.0 0 0 115.38 919.46   Q 130.23 919.56 143.94 919.45   C 167.43 919.26 190.41 911.76 197.20 886.72   Q 200.42 874.83 199.33 860.89"/>
<path stroke="#808080" vector-effect="non-scaling-stroke" d="   M 816.13 886.00   C 816.07 848.70 791.93 822.72 753.56 822.64   Q 732.00 822.59 712.34 822.68   Q 712.03 822.68 712.03 822.99   L 712.03 1096.54   A 0.70 0.69 0.4 0 0 712.72 1097.23   Q 732.12 1097.29 750.01 1097.22   Q 761.18 1097.18 769.35 1095.35   C 800.90 1088.28 816.09 1064.29 816.14 1033.33   Q 816.26 958.82 816.13 886.00"/>
<path stroke="#808080" vector-effect="non-scaling-stroke" d="   M 506.22 1327.42   Q 506.21 1327.94 506.30 1328.38   Q 506.58 1329.82 507.14 1328.46   L 538.39 1252.89   Q 539.00 1251.40 537.50 1250.80   Q 530.78 1248.12 522.33 1249.17   Q 510.93 1250.58 507.87 1261.31   Q 506.33 1266.71 506.38 1271.04   Q 506.66 1297.76 506.22 1327.42"/>
<path stroke="#808080" vector-effect="non-scaling-stroke" d="   M 546.91 1270.19   Q 546.89 1267.15 545.72 1269.96   L 513.05 1348.82   A 1.20 1.19 32.6 0 0 513.35 1350.17   Q 515.19 1351.82 517.64 1352.50   C 526.44 1354.91 539.56 1354.78 544.19 1345.37   Q 546.86 1339.95 546.91 1334.10   Q 547.11 1309.55 546.91 1270.19"/>
<path stroke="#808080" vector-effect="non-scaling-stroke" d="   M 152.73 1259.81   Q 150.79 1265.31 150.77 1273.25   Q 150.66 1304.94 150.83 1331.39   C 150.89 1341.46 153.80 1351.58 165.39 1353.32   C 173.82 1354.58 185.37 1353.73 189.08 1344.34   Q 191.46 1338.33 191.48 1330.17   Q 191.55 1299.44 191.47 1272.07   C 191.44 1261.12 188.32 1250.69 175.60 1249.14   C 166.14 1248.00 156.25 1249.84 152.73 1259.81"/>
<path stroke="#808080" vector-effect="non-scaling-stroke" d="   M 271.50 1250.16   L 271.50 1286.00   A 0.22 0.22 0.0 0 0 271.72 1286.22   L 285.02 1286.22   A 17.54 15.89 -0.0 0 0 302.56 1270.33   L 302.56 1265.83   A 17.54 15.89 0.0 0 0 285.02 1249.94   L 271.72 1249.94   A 0.22 0.22 0.0 0 0 271.50 1250.16"/>
<path stroke="#808080" vector-effect="non-scaling-stroke" d="   M 405.14 1250.14   L 405.02 1286.10   A 0.30 0.30 0.0 0 0 405.32 1286.40   L 413.43 1286.43   A 15.71 15.69 -89.8 0 0 429.17 1270.77   L 429.19 1265.63   A 15.71 15.69 -89.8 0 0 413.55 1249.87   L 405.44 1249.84   A 0.30 0.30 0.0 0 0 405.14 1250.14"/>
<path stroke="#808080" vector-effect="non-scaling-stroke" d="   M 421.86 1311.68   Q 415.62 1309.55 405.61 1310.18   Q 405.07 1310.22 405.07 1310.77   L 405.09 1352.37   Q 405.09 1352.92 405.64 1352.94   Q 413.20 1353.22 420.17 1352.30   C 425.08 1351.65 430.32 1348.77 432.04 1344.02   Q 435.05 1335.69 433.45 1325.76   Q 431.73 1315.04 421.86 1311.68"/>
<path stroke="#808080" vector-effect="non-scaling-stroke" d="   M 627.09 1250.23   L 627.27 1286.01   A 0.23 0.23 0.0 0 0 627.51 1286.24   L 640.80 1286.17   A 17.41 15.75 -0.3 0 0 658.13 1270.33   L 658.11 1265.59   A 17.41 15.75 -0.3 0 0 640.62 1249.93   L 627.32 1250.00   A 0.23 0.23 0.0 0 0 627.09 1250.23"/>
</g>
<path fill="#ffffff" d="   M 0.00 0.00   L 1448.00 0.00   L 1448.00 1448.00   L 0.00 1448.00   L 0.00 0.00   Z   M 113.70 340.20   C 114.37 342.35 114.58 344.89 115.04 347.21   Q 148.62 514.98 182.27 682.97   A 1.28 1.26 84.1 0 0 183.51 683.99   L 272.97 683.99   Q 273.69 683.99 273.84 683.29   L 348.02 344.72   Q 348.77 341.32 348.77 344.80   L 348.78 683.26   A 0.74 0.73 90.0 0 0 349.51 684.00   L 429.43 683.98   A 0.41 0.40 -90.0 0 0 429.83 683.57   L 429.83 247.57   A 0.51 0.51 0.0 0 0 429.32 247.06   L 287.25 247.05   Q 286.80 247.05 286.72 247.50   L 231.64 555.61   Q 231.28 557.58 230.93 555.61   L 175.84 247.62   A 0.67 0.67 0.0 0 0 175.18 247.07   L 32.48 247.05   A 0.47 0.47 0.0 0 0 32.01 247.52   L 32.00 683.25   A 0.75 0.74 -0.0 0 0 32.75 683.99   L 112.53 683.99   A 0.65 0.65 0.0 0 0 113.18 683.34   L 113.14 340.29   Q 113.14 338.39 113.70 340.20   Z   M 571.55 420.28   A 0.49 0.49 0.0 0 1 571.06 419.79   L 571.03 320.49   A 0.49 0.49 0.0 0 1 571.52 320.00   L 682.99 320.00   A 0.49 0.49 0.0 0 0 683.48 319.51   L 683.48 247.55   A 0.49 0.49 0.0 0 0 682.99 247.06   L 480.82 247.06   A 0.49 0.49 0.0 0 0 480.33 247.55   L 480.35 683.49   A 0.49 0.49 0.0 0 0 480.84 683.98   L 688.76 683.99   A 0.49 0.49 0.0 0 0 689.25 683.50   L 689.25 611.53   A 0.49 0.49 0.0 0 0 688.76 611.04   L 571.52 611.04   A 0.49 0.49 0.0 0 1 571.03 610.55   L 571.06 493.51   A 0.49 0.49 0.0 0 1 571.55 493.02   L 679.94 493.02   A 0.49 0.49 0.0 0 0 680.43 492.53   L 680.42 420.76   A 0.49 0.49 0.0 0 0 679.93 420.27   L 571.55 420.28   Z   M 937.79 670.71   C 996.80 645.56 1024.74 589.57 1024.95 526.71   Q 1025.09 481.47 1024.92 402.51   C 1024.85 370.48 1018.07 337.65 1001.20 310.58   C 971.58 263.01 919.18 246.95 865.68 247.03   Q 802.65 247.12 733.91 247.02   Q 733.45 247.02 733.45 247.48   L 733.44 683.44   Q 733.44 683.98 733.98 683.98   Q 805.26 684.04 869.89 683.93   C 892.58 683.90 917.01 679.57 937.79 670.71   Z   M 1072.46 683.48   A 0.50 0.50 0.0 0 0 1072.96 683.98   L 1162.42 684.00   A 0.50 0.50 0.0 0 0 1162.92 683.50   L 1162.92 247.56   A 0.50 0.50 0.0 0 0 1162.42 247.06   L 1072.95 247.05   A 0.50 0.50 0.0 0 0 1072.45 247.55   L 1072.46 683.48   Z   M 1303.95 320.41   A 0.41 0.41 0.0 0 1 1304.36 320.00   L 1416.09 320.00   A 0.41 0.41 0.0 0 0 1416.50 319.59   L 1416.50 247.47   A 0.41 0.41 0.0 0 0 1416.09 247.06   L 1213.88 247.05   A 0.41 0.41 0.0 0 0 1213.47 247.46   L 1213.47 683.58   A 0.41 0.41 0.0 0 0 1213.88 683.99   L 1421.75 683.99   A 0.41 0.41 0.0 0 0 1422.16 683.58   L 1422.15 611.45   A 0.41 0.41 0.0 0 0 1421.74 611.04   L 1304.36 611.04   A 0.41 0.41 0.0 0 1 1303.95 610.63   L 1303.95 493.43   A 0.41 0.41 0.0 0 1 1304.36 493.02   L 1412.84 493.02   A 0.41 0.41 0.0 0 0 1413.25 492.61   L 1413.25 420.68   A 0.41 0.41 0.0 0 0 1412.84 420.27   L 1304.36 420.27   A 0.41 0.41 0.0 0 1 1303.95 419.86   L 1303.95 320.41   Z   M 408.02 1075.00   Q 411.44 1074.54 415.86 1074.53   Q 450.57 1074.52 484.78 1074.62   Q 487.25 1074.63 490.00 1074.82   Q 491.80 1074.94 492.13 1076.68   Q 500.59 1121.03 508.93 1164.76   Q 509.03 1165.28 509.55 1165.28   L 596.29 1165.27   A 0.46 0.46 0.0 0 0 596.74 1164.71   L 517.74 803.50   A 1.17 1.17 0.0 0 1 518.07 802.39   Q 527.27 793.57 529.41 781.38   C 530.80 773.49 531.23 764.41 530.09 756.51   C 526.02 728.26 500.42 711.14 474.62 705.16   Q 444.06 698.08 414.22 706.96   C 389.31 714.37 366.74 732.43 365.04 760.26   C 364.20 773.95 366.76 787.85 374.48 799.04   C 375.39 800.35 376.62 801.41 377.51 802.69   Q 377.83 803.14 377.72 803.68   L 302.32 1164.68   Q 302.20 1165.27 302.81 1165.27   L 389.74 1165.27   A 0.32 0.31 -84.5 0 0 390.05 1165.01   L 407.07 1075.90   Q 407.22 1075.11 408.02 1075.00   Z   M 115.55 987.00   L 132.14 986.97   A 0.94 0.94 0.0 0 1 133.03 987.60   L 195.19 1165.23   A 0.81 0.80 -9.7 0 0 195.95 1165.76   L 289.71 1165.76   Q 290.35 1165.76 290.11 1165.17   L 213.82 974.71   A 0.74 0.73 -22.3 0 1 214.22 973.76   C 246.83 960.44 268.46 930.48 276.38 896.47   Q 283.49 865.93 275.17 833.09   C 265.50 794.86 237.85 766.96 199.48 757.78   Q 183.44 753.94 166.75 753.92   Q 99.89 753.84 32.45 753.85   A 0.44 0.43 0.0 0 0 32.01 754.28   L 32.00 1165.26   A 0.50 0.50 0.0 0 0 32.50 1165.76   L 114.67 1165.77   Q 115.11 1165.77 115.11 1165.33   L 115.10 987.45   A 0.45 0.45 0.0 0 1 115.55 987.00   Z   M 892.35 1074.19   Q 901.40 1047.86 901.47 1018.48   Q 901.64 949.12 901.41 897.66   Q 901.31 875.50 895.70 853.45   C 887.37 820.71 869.40 793.06 840.36 775.39   C 815.50 760.27 784.90 754.00 755.57 753.93   Q 692.98 753.78 627.28 753.86   Q 626.62 753.86 626.62 754.53   L 626.63 1165.03   Q 626.63 1165.78 627.38 1165.78   Q 688.56 1165.72 750.73 1165.80   Q 761.36 1165.82 770.47 1165.07   C 827.39 1160.42 873.47 1129.16 892.35 1074.19   Z   M 1031.72 822.98   A 0.36 0.36 0.0 0 1 1032.08 822.62   L 1137.38 822.64   A 0.36 0.36 0.0 0 0 1137.74 822.28   L 1137.74 754.22   A 0.36 0.36 0.0 0 0 1137.38 753.86   L 946.62 753.84   A 0.36 0.36 0.0 0 0 946.26 754.20   L 946.26 1165.40   A 0.36 0.36 0.0 0 0 946.62 1165.76   L 1142.65 1165.77   A 0.36 0.36 0.0 0 0 1143.01 1165.41   L 1143.01 1097.60   A 0.36 0.36 0.0 0 0 1142.65 1097.24   L 1032.08 1097.25   A 0.36 0.36 0.0 0 1 1031.72 1096.89   L 1031.72 986.22   A 0.36 0.36 0.0 0 1 1032.08 985.86   L 1134.33 985.90   A 0.36 0.36 0.0 0 0 1134.69 985.54   L 1134.67 917.51   A 0.36 0.36 0.0 0 0 1134.31 917.15   L 1032.08 917.19   A 0.36 0.36 0.0 0 1 1031.72 916.83   L 1031.72 822.98   Z   M 1251.73 822.63   A 0.49 0.49 0.0 0 1 1252.22 823.12   L 1252.23 1165.27   A 0.49 0.49 0.0 0 0 1252.72 1165.76   L 1337.06 1165.77   A 0.49 0.49 0.0 0 0 1337.55 1165.28   L 1337.54 823.12   A 0.49 0.49 0.0 0 1 1338.03 822.63   L 1421.67 822.63   A 0.49 0.49 0.0 0 0 1422.16 822.14   L 1422.14 754.34   A 0.49 0.49 0.0 0 0 1421.65 753.85   L 1167.39 753.85   A 0.49 0.49 0.0 0 0 1166.90 754.34   L 1166.87 822.13   A 0.49 0.49 0.0 0 0 1167.36 822.62   L 1251.73 822.63   Z   M 548.33 1227.20   C 538.67 1223.50 527.17 1222.83 517.22 1224.21   C 499.53 1226.66 485.09 1236.66 478.43 1253.06   Q 474.05 1263.86 473.86 1274.48   Q 473.53 1292.75 473.71 1325.46   C 473.80 1341.20 478.77 1356.38 490.54 1366.99   A 0.95 0.93 -57.7 0 1 490.77 1368.04   L 484.57 1383.02   A 0.68 0.68 0.0 0 0 485.21 1383.96   L 497.82 1383.84   A 1.21 1.21 0.0 0 0 498.93 1383.08   L 502.01 1375.49   A 1.01 1.00 21.5 0 1 503.30 1374.93   Q 516.67 1380.05 532.83 1378.81   C 563.38 1376.47 579.53 1354.66 579.85 1325.19   Q 580.10 1302.25 579.84 1277.07   C 579.68 1260.62 574.04 1244.66 561.16 1234.27   A 0.71 0.71 0.0 0 1 560.95 1233.45   L 567.77 1216.78   A 0.52 0.52 0.0 0 0 567.29 1216.07   L 554.24 1216.19   A 0.96 0.95 -79.2 0 0 553.35 1216.80   L 549.40 1226.74   Q 549.09 1227.50 548.33 1227.20   Z   M 125.61 1357.22   C 132.57 1368.84 144.53 1375.76 157.83 1377.93   C 185.06 1382.38 214.32 1374.37 221.92 1344.69   Q 223.97 1336.69 224.08 1330.58   Q 224.47 1309.06 224.23 1276.18   C 224.04 1249.17 210.89 1229.14 183.52 1224.59   C 155.84 1220.00 127.23 1229.53 120.01 1259.77   Q 118.13 1267.63 118.08 1274.24   Q 117.88 1299.95 118.05 1326.07   C 118.12 1336.97 120.00 1347.87 125.61 1357.22   Z   M 942.28 1313.30   L 955.50 1313.31   Q 956.05 1313.31 956.05 1312.76   L 956.03 1288.20   A 0.40 0.40 0.0 0 0 955.63 1287.80   L 912.53 1287.78   A 0.47 0.47 0.0 0 0 912.06 1288.25   Q 911.95 1310.42 912.11 1333.20   Q 912.16 1340.95 910.83 1344.56   C 907.64 1353.21 896.64 1355.90 888.76 1351.96   Q 880.91 1348.04 880.59 1338.43   Q 880.33 1330.65 880.81 1323.52   C 881.46 1313.77 887.35 1312.85 895.61 1313.38   Q 896.29 1313.42 896.29 1312.75   L 896.29 1288.30   A 0.52 0.52 0.0 0 0 895.77 1287.78   C 892.78 1287.74 889.36 1288.29 886.61 1286.94   C 882.71 1285.01 881.63 1280.18 881.53 1276.11   Q 881.34 1268.60 881.61 1262.15   C 881.96 1253.67 888.00 1249.38 895.92 1248.90   C 904.76 1248.36 911.37 1254.29 911.89 1263.26   Q 912.14 1267.52 911.98 1271.89   Q 911.96 1272.45 912.52 1272.45   L 941.40 1272.46   A 0.28 0.28 0.0 0 0 941.68 1272.19   Q 942.06 1265.78 941.33 1259.30   C 938.47 1233.92 918.41 1223.05 894.81 1223.56   C 874.32 1224.00 855.55 1231.82 850.67 1253.49   C 849.12 1260.39 849.31 1269.66 849.90 1276.75   Q 851.08 1290.81 862.43 1298.96   A 0.36 0.36 0.0 0 1 862.41 1299.56   C 852.82 1305.43 849.24 1315.28 848.76 1326.40   Q 848.43 1334.24 848.93 1340.79   C 850.68 1363.63 865.52 1376.25 887.04 1378.57   C 917.14 1381.83 941.67 1369.70 941.74 1335.95   Q 941.76 1324.62 941.73 1313.85   Q 941.72 1313.30 942.28 1313.30   Z   M 1300.01 1323.18   Q 1299.96 1331.64 1299.95 1339.51   C 1299.95 1346.58 1297.54 1352.00 1289.76 1353.25   C 1284.17 1354.14 1276.64 1354.45 1272.00 1350.73   C 1267.44 1347.08 1266.19 1339.42 1266.16 1333.82   Q 1266.02 1304.36 1266.11 1270.29   C 1266.14 1260.58 1268.07 1250.04 1279.86 1249.04   Q 1284.55 1248.64 1289.41 1249.28   C 1298.07 1250.41 1299.69 1257.60 1299.88 1264.92   Q 1300.04 1271.14 1299.98 1277.75   A 0.48 0.47 -89.4 0 0 1300.45 1278.24   L 1332.22 1278.26   Q 1332.77 1278.26 1332.79 1277.72   Q 1333.21 1269.11 1331.33 1259.35   C 1326.83 1235.93 1310.46 1225.14 1288.03 1223.70   C 1262.21 1222.06 1242.02 1233.17 1235.54 1259.01   Q 1233.49 1267.20 1233.42 1274.76   Q 1233.19 1300.80 1233.41 1327.62   C 1233.61 1353.25 1244.99 1374.49 1272.67 1378.33   Q 1288.44 1380.51 1302.37 1376.62   C 1324.94 1370.32 1332.87 1352.00 1332.88 1330.09   Q 1332.89 1314.53 1332.88 1298.89   Q 1332.88 1298.53 1332.51 1298.53   L 1285.75 1298.53   A 0.48 0.48 0.0 0 0 1285.27 1299.01   L 1285.26 1321.70   Q 1285.26 1322.38 1285.95 1322.39   L 1299.30 1322.46   Q 1300.01 1322.47 1300.01 1323.18   Z   M 64.12 1285.49   A 0.39 0.39 0.0 0 1 63.73 1285.10   L 63.73 1250.89   A 0.39 0.39 0.0 0 1 64.12 1250.50   L 112.36 1250.50   A 0.39 0.39 0.0 0 0 112.75 1250.11   L 112.75 1225.39   A 0.39 0.39 0.0 0 0 112.36 1225.00   L 32.39 1225.00   A 0.39 0.39 0.0 0 0 32.00 1225.39   L 31.99 1377.17   A 0.39 0.39 0.0 0 0 32.38 1377.56   L 63.34 1377.58   A 0.39 0.39 0.0 0 0 63.73 1377.19   L 63.73 1311.37   A 0.39 0.39 0.0 0 1 64.12 1310.98   L 102.39 1311.00   A 0.39 0.39 0.0 0 0 102.78 1310.61   L 102.78 1285.87   A 0.39 0.39 0.0 0 0 102.39 1285.48   L 64.12 1285.49   Z   M 271.75 1311.31   L 277.23 1311.30   Q 277.87 1311.30 278.08 1311.91   L 300.89 1377.13   A 0.64 0.63 80.3 0 0 301.49 1377.56   L 335.72 1377.58   A 0.41 0.41 0.0 0 0 336.10 1377.01   L 308.27 1307.54   Q 307.93 1306.71 308.75 1306.33   C 327.91 1297.53 335.45 1275.81 331.03 1256.00   Q 326.09 1233.85 304.25 1226.94   C 299.70 1225.50 293.77 1225.05 289.00 1225.04   Q 269.64 1224.97 241.26 1225.01   Q 240.73 1225.01 240.73 1225.54   L 240.74 1377.02   Q 240.74 1377.56 241.27 1377.56   L 270.97 1377.57   Q 271.50 1377.57 271.50 1377.03   L 271.50 1311.56   A 0.25 0.25 0.0 0 1 271.75 1311.31   Z   M 440.58 1297.20   C 459.87 1291.24 462.83 1266.36 457.61 1250.34   C 451.65 1232.03 436.50 1225.08 418.40 1225.03   Q 396.15 1224.97 374.55 1225.02   A 0.25 0.24 -0.0 0 0 374.30 1225.26   L 374.32 1377.02   Q 374.32 1377.53 374.82 1377.53   Q 399.88 1377.67 424.63 1377.48   C 454.12 1377.25 466.91 1354.49 464.76 1327.80   C 463.48 1311.96 454.77 1303.79 440.55 1297.97   A 0.41 0.41 0.0 0 1 440.58 1297.20   Z   M 664.07 1306.50   C 683.23 1297.50 691.33 1276.23 686.61 1255.93   C 681.73 1234.93 665.73 1225.16 645.12 1225.05   Q 622.19 1224.94 596.66 1225.02   A 0.45 0.45 0.0 0 0 596.21 1225.47   L 596.26 1377.28   A 0.28 0.27 90.0 0 0 596.53 1377.56   L 626.68 1377.57   A 0.51 0.50 0.0 0 0 627.19 1377.07   L 627.19 1312.04   Q 627.19 1311.27 627.96 1311.28   L 632.67 1311.34   A 1.20 1.19 80.5 0 1 633.78 1312.14   L 656.41 1376.81   A 1.12 1.12 0.0 0 0 657.47 1377.56   L 691.42 1377.57   A 0.37 0.36 -10.9 0 0 691.76 1377.07   L 663.78 1307.24   A 0.58 0.58 0.0 0 1 664.07 1306.50   Z   M 777.00 1225.00   A 0.31 0.31 0.0 0 0 776.69 1225.31   L 776.74 1321.47   A 0.31 0.31 0.0 0 1 776.14 1321.57   L 740.92 1225.22   A 0.31 0.31 0.0 0 0 740.63 1225.02   L 703.12 1224.99   A 0.31 0.31 0.0 0 0 702.81 1225.30   L 702.80 1377.26   A 0.31 0.31 0.0 0 0 703.11 1377.57   L 731.16 1377.56   A 0.31 0.31 0.0 0 0 731.47 1377.25   L 731.38 1281.36   A 0.31 0.31 0.0 0 1 731.98 1281.25   L 766.84 1377.36   A 0.31 0.31 0.0 0 0 767.13 1377.56   L 804.95 1377.57   A 0.31 0.31 0.0 0 0 805.26 1377.26   L 805.26 1225.31   A 0.31 0.31 0.0 0 0 804.95 1225.00   L 777.00 1225.00   Z   M 994.05 1327.86   C 994.07 1353.24 1006.71 1373.63 1032.68 1377.95   C 1057.88 1382.14 1084.37 1375.92 1094.19 1349.87   C 1097.72 1340.50 1097.87 1331.08 1097.87 1321.61   Q 1097.84 1273.73 1097.96 1225.66   A 0.66 0.66 0.0 0 0 1097.30 1225.00   L 1065.50 1225.00   A 0.31 0.31 0.0 0 0 1065.19 1225.31   Q 1065.30 1280.47 1065.18 1332.71   Q 1065.17 1338.22 1063.36 1343.64   C 1060.19 1353.12 1051.06 1354.38 1042.06 1353.59   C 1029.71 1352.51 1026.80 1342.37 1026.79 1331.91   Q 1026.73 1279.58 1026.77 1225.55   A 0.55 0.55 0.0 0 0 1026.22 1225.00   L 994.46 1225.00   A 0.43 0.42 90.0 0 0 994.04 1225.43   Q 994.01 1281.72 994.05 1327.86   Z   M 1142.90 1282.07   Q 1143.21 1280.16 1143.87 1281.98   L 1178.35 1377.06   Q 1178.53 1377.57 1179.08 1377.57   L 1216.49 1377.57   A 0.34 0.33 -90.0 0 0 1216.82 1377.23   L 1216.82 1225.25   Q 1216.82 1225.00 1216.57 1225.00   L 1188.75 1225.00   Q 1188.26 1225.00 1188.26 1225.50   L 1188.27 1320.52   Q 1188.28 1322.94 1187.44 1320.66   L 1152.71 1225.60   A 0.93 0.91 -9.9 0 0 1151.84 1225.00   L 1114.76 1225.00   Q 1114.45 1225.00 1114.45 1225.32   L 1114.45 1377.26   Q 1114.45 1377.57 1114.76 1377.57   L 1142.72 1377.55   A 0.28 0.28 0.0 0 0 1143.00 1377.28   Q 1143.19 1334.43 1142.74 1284.27   Q 1142.73 1283.09 1142.90 1282.07   Z   M 1380.77 1250.94   A 0.43 0.43 0.0 0 1 1381.20 1250.51   L 1419.69 1250.50   A 0.43 0.43 0.0 0 0 1420.12 1250.07   L 1420.15 1225.44   A 0.43 0.43 0.0 0 0 1419.72 1225.01   L 1349.65 1225.00   A 0.43 0.43 0.0 0 0 1349.22 1225.43   L 1349.22 1377.14   A 0.43 0.43 0.0 0 0 1349.65 1377.57   L 1421.74 1377.57   A 0.43 0.43 0.0 0 0 1422.17 1377.14   L 1422.13 1352.55   A 0.43 0.43 0.0 0 0 1421.70 1352.12   L 1381.21 1352.11   A 0.43 0.43 0.0 0 1 1380.78 1351.68   L 1380.78 1311.41   A 0.43 0.43 0.0 0 1 1381.21 1310.98   L 1418.59 1310.99   A 0.43 0.43 0.0 0 0 1419.02 1310.56   L 1419.03 1285.92   A 0.43 0.43 0.0 0 0 1418.60 1285.49   L 1381.21 1285.48   A 0.43 0.43 0.0 0 1 1380.78 1285.05   L 1380.77 1250.94   Z"/>
<path fill="#000000" d="   M 113.70 340.20   Q 113.14 338.39 113.14 340.29   L 113.18 683.34   A 0.65 0.65 0.0 0 1 112.53 683.99   L 32.75 683.99   A 0.75 0.74 -0.0 0 1 32.00 683.25   L 32.01 247.52   A 0.47 0.47 0.0 0 1 32.48 247.05   L 175.18 247.07   A 0.67 0.67 0.0 0 1 175.84 247.62   L 230.93 555.61   Q 231.28 557.58 231.64 555.61   L 286.72 247.50   Q 286.80 247.05 287.25 247.05   L 429.32 247.06   A 0.51 0.51 0.0 0 1 429.83 247.57   L 429.83 683.57   A 0.41 0.40 90.0 0 1 429.43 683.98   L 349.51 684.00   A 0.74 0.73 -90.0 0 1 348.78 683.26   L 348.77 344.80   Q 348.77 341.32 348.02 344.72   L 273.84 683.29   Q 273.69 683.99 272.97 683.99   L 183.51 683.99   A 1.28 1.26 84.1 0 1 182.27 682.97   Q 148.62 514.98 115.04 347.21   C 114.58 344.89 114.37 342.35 113.70 340.20   Z"/>
<path fill="#000000" d="   M 571.55 420.28   L 679.93 420.27   A 0.49 0.49 0.0 0 1 680.42 420.76   L 680.43 492.53   A 0.49 0.49 0.0 0 1 679.94 493.02   L 571.55 493.02   A 0.49 0.49 0.0 0 0 571.06 493.51   L 571.03 610.55   A 0.49 0.49 0.0 0 0 571.52 611.04   L 688.76 611.04   A 0.49 0.49 0.0 0 1 689.25 611.53   L 689.25 683.50   A 0.49 0.49 0.0 0 1 688.76 683.99   L 480.84 683.98   A 0.49 0.49 0.0 0 1 480.35 683.49   L 480.33 247.55   A 0.49 0.49 0.0 0 1 480.82 247.06   L 682.99 247.06   A 0.49 0.49 0.0 0 1 683.48 247.55   L 683.48 319.51   A 0.49 0.49 0.0 0 1 682.99 320.00   L 571.52 320.00   A 0.49 0.49 0.0 0 0 571.03 320.49   L 571.06 419.79   A 0.49 0.49 0.0 0 0 571.55 420.28   Z"/>
<path fill="#000000" d="   M 1024.95 526.71   C 1024.74 589.57 996.80 645.56 937.79 670.71   C 917.01 679.57 892.58 683.90 869.89 683.93   Q 805.26 684.04 733.98 683.98   Q 733.44 683.98 733.44 683.44   L 733.45 247.48   Q 733.45 247.02 733.91 247.02   Q 802.65 247.12 865.68 247.03   C 919.18 246.95 971.58 263.01 1001.20 310.58   C 1018.07 337.65 1024.85 370.48 1024.92 402.51   Q 1025.09 481.47 1024.95 526.71   Z   M 933.23 373.07   C 927.65 340.00 902.13 320.21 869.23 320.04   Q 847.92 319.93 824.41 320.04   Q 823.93 320.05 823.93 320.52   L 823.93 610.48   Q 823.93 611.05 824.50 611.05   Q 845.48 611.02 866.49 611.06   C 897.37 611.12 923.76 596.11 931.71 565.02   Q 934.31 554.84 934.31 545.36   Q 934.26 467.99 934.34 391.31   Q 934.35 379.71 933.23 373.07   Z"/>
<path fill="#000000" d="   M 1072.46 683.48   L 1072.45 247.55   A 0.50 0.50 0.0 0 1 1072.95 247.05   L 1162.42 247.06   A 0.50 0.50 0.0 0 1 1162.92 247.56   L 1162.92 683.50   A 0.50 0.50 0.0 0 1 1162.42 684.00   L 1072.96 683.98   A 0.50 0.50 0.0 0 1 1072.46 683.48   Z"/>
<path fill="#000000" d="   M 1303.95 320.41   L 1303.95 419.86   A 0.41 0.41 0.0 0 0 1304.36 420.27   L 1412.84 420.27   A 0.41 0.41 0.0 0 1 1413.25 420.68   L 1413.25 492.61   A 0.41 0.41 0.0 0 1 1412.84 493.02   L 1304.36 493.02   A 0.41 0.41 0.0 0 0 1303.95 493.43   L 1303.95 610.63   A 0.41 0.41 0.0 0 0 1304.36 611.04   L 1421.74 611.04   A 0.41 0.41 0.0 0 1 1422.15 611.45   L 1422.16 683.58   A 0.41 0.41 0.0 0 1 1421.75 683.99   L 1213.88 683.99   A 0.41 0.41 0.0 0 1 1213.47 683.58   L 1213.47 247.46   A 0.41 0.41 0.0 0 1 1213.88 247.05   L 1416.09 247.06   A 0.41 0.41 0.0 0 1 1416.50 247.47   L 1416.50 319.59   A 0.41 0.41 0.0 0 1 1416.09 320.00   L 1304.36 320.00   A 0.41 0.41 0.0 0 0 1303.95 320.41   Z"/>
<path fill="#ffffff" d="   M 869.23 320.04   C 902.13 320.21 927.65 340.00 933.23 373.07   Q 934.35 379.71 934.34 391.31   Q 934.26 467.99 934.31 545.36   Q 934.31 554.84 931.71 565.02   C 923.76 596.11 897.37 611.12 866.49 611.06   Q 845.48 611.02 824.50 611.05   Q 823.93 611.05 823.93 610.48   L 823.93 320.52   Q 823.93 320.05 824.41 320.04   Q 847.92 319.93 869.23 320.04   Z"/>
<path fill="#000000" d="   M 408.02 1075.00   Q 407.22 1075.11 407.07 1075.90   L 390.05 1165.01   A 0.32 0.31 -84.5 0 1 389.74 1165.27   L 302.81 1165.27   Q 302.20 1165.27 302.32 1164.68   L 377.72 803.68   Q 377.83 803.14 377.51 802.69   C 376.62 801.41 375.39 800.35 374.48 799.04   C 366.76 787.85 364.20 773.95 365.04 760.26   C 366.74 732.43 389.31 714.37 414.22 706.96   Q 444.06 698.08 474.62 705.16   C 500.42 711.14 526.02 728.26 530.09 756.51   C 531.23 764.41 530.80 773.49 529.41 781.38   Q 527.27 793.57 518.07 802.39   A 1.17 1.17 0.0 0 0 517.74 803.50   L 596.74 1164.71   A 0.46 0.46 0.0 0 1 596.29 1165.27   L 509.55 1165.28   Q 509.03 1165.28 508.93 1164.76   Q 500.59 1121.03 492.13 1076.68   Q 491.80 1074.94 490.00 1074.82   Q 487.25 1074.63 484.78 1074.62   Q 450.57 1074.52 415.86 1074.53   Q 411.44 1074.54 408.02 1075.00   Z   M 472.65 742.95   Q 451.16 733.03 429.44 740.87   C 418.71 744.75 407.29 752.66 407.33 764.76   C 407.36 777.45 416.64 785.55 428.19 789.35   Q 447.16 795.60 467.26 789.88   C 475.20 787.61 483.41 782.91 487.34 775.52   C 491.18 768.29 490.96 759.58 485.80 752.99   Q 480.93 746.77 472.65 742.95   Z   M 446.37 839.06   Q 445.80 836.07 445.33 839.08   C 444.97 841.31 444.79 843.67 444.41 845.96   Q 431.25 924.66 418.12 1003.23   A 0.35 0.35 0.0 0 0 418.47 1003.64   L 476.76 1003.63   A 0.55 0.55 0.0 0 0 477.30 1002.98   L 446.37 839.06   Z"/>
<path fill="#ffffff" d="   M 472.65 742.95   Q 480.93 746.77 485.80 752.99   C 490.96 759.58 491.18 768.29 487.34 775.52   C 483.41 782.91 475.20 787.61 467.26 789.88   Q 447.16 795.60 428.19 789.35   C 416.64 785.55 407.36 777.45 407.33 764.76   C 407.29 752.66 418.71 744.75 429.44 740.87   Q 451.16 733.03 472.65 742.95   Z"/>
<path fill="#000000" d="   M 115.55 987.00   A 0.45 0.45 0.0 0 0 115.10 987.45   L 115.11 1165.33   Q 115.11 1165.77 114.67 1165.77   L 32.50 1165.76   A 0.50 0.50 0.0 0 1 32.00 1165.26   L 32.01 754.28   A 0.44 0.43 -0.0 0 1 32.45 753.85   Q 99.89 753.84 166.75 753.92   Q 183.44 753.94 199.48 757.78   C 237.85 766.96 265.50 794.86 275.17 833.09   Q 283.49 865.93 276.38 896.47   C 268.46 930.48 246.83 960.44 214.22 973.76   A 0.74 0.73 -22.3 0 0 213.82 974.71   L 290.11 1165.17   Q 290.35 1165.76 289.71 1165.76   L 195.95 1165.76   A 0.81 0.80 -9.7 0 1 195.19 1165.23   L 133.03 987.60   A 0.94 0.94 0.0 0 0 132.14 986.97   L 115.55 987.00   Z   M 199.33 860.89   C 197.90 842.35 188.23 829.62 170.29 824.54   C 152.65 819.55 133.66 820.80 115.49 820.80   A 0.39 0.38 90.0 0 0 115.11 821.19   L 115.11 919.19   A 0.27 0.27 0.0 0 0 115.38 919.46   Q 130.23 919.56 143.94 919.45   C 167.43 919.26 190.41 911.76 197.20 886.72   Q 200.42 874.83 199.33 860.89   Z"/>
<path fill="#000000" d="   M 892.35 1074.19   C 873.47 1129.16 827.39 1160.42 770.47 1165.07   Q 761.36 1165.82 750.73 1165.80   Q 688.56 1165.72 627.38 1165.78   Q 626.63 1165.78 626.63 1165.03   L 626.62 754.53   Q 626.62 753.86 627.28 753.86   Q 692.98 753.78 755.57 753.93   C 784.90 754.00 815.50 760.27 840.36 775.39   C 869.40 793.06 887.37 820.71 895.70 853.45   Q 901.31 875.50 901.41 897.66   Q 901.64 949.12 901.47 1018.48   Q 901.40 1047.86 892.35 1074.19   Z   M 816.13 886.00   C 816.07 848.70 791.93 822.72 753.56 822.64   Q 732.00 822.59 712.34 822.68   Q 712.03 822.68 712.03 822.99   L 712.03 1096.54   A 0.70 0.69 0.4 0 0 712.72 1097.23   Q 732.12 1097.29 750.01 1097.22   Q 761.18 1097.18 769.35 1095.35   C 800.90 1088.28 816.09 1064.29 816.14 1033.33   Q 816.26 958.82 816.13 886.00   Z"/>
<path fill="#000000" d="   M 1031.72 822.98   L 1031.72 916.83   A 0.36 0.36 0.0 0 0 1032.08 917.19   L 1134.31 917.15   A 0.36 0.36 0.0 0 1 1134.67 917.51   L 1134.69 985.54   A 0.36 0.36 0.0 0 1 1134.33 985.90   L 1032.08 985.86   A 0.36 0.36 0.0 0 0 1031.72 986.22   L 1031.72 1096.89   A 0.36 0.36 0.0 0 0 1032.08 1097.25   L 1142.65 1097.24   A 0.36 0.36 0.0 0 1 1143.01 1097.60   L 1143.01 1165.41   A 0.36 0.36 0.0 0 1 1142.65 1165.77   L 946.62 1165.76   A 0.36 0.36 0.0 0 1 946.26 1165.40   L 946.26 754.20   A 0.36 0.36 0.0 0 1 946.62 753.84   L 1137.38 753.86   A 0.36 0.36 0.0 0 1 1137.74 754.22   L 1137.74 822.28   A 0.36 0.36 0.0 0 1 1137.38 822.64   L 1032.08 822.62   A 0.36 0.36 0.0 0 0 1031.72 822.98   Z"/>
<path fill="#000000" d="   M 1251.73 822.63   L 1167.36 822.62   A 0.49 0.49 0.0 0 1 1166.87 822.13   L 1166.90 754.34   A 0.49 0.49 0.0 0 1 1167.39 753.85   L 1421.65 753.85   A 0.49 0.49 0.0 0 1 1422.14 754.34   L 1422.16 822.14   A 0.49 0.49 0.0 0 1 1421.67 822.63   L 1338.03 822.63   A 0.49 0.49 0.0 0 0 1337.54 823.12   L 1337.55 1165.28   A 0.49 0.49 0.0 0 1 1337.06 1165.77   L 1252.72 1165.76   A 0.49 0.49 0.0 0 1 1252.23 1165.27   L 1252.22 823.12   A 0.49 0.49 0.0 0 0 1251.73 822.63   Z"/>
<path fill="#ffffff" d="   M 170.29 824.54   C 188.23 829.62 197.90 842.35 199.33 860.89   Q 200.42 874.83 197.20 886.72   C 190.41 911.76 167.43 919.26 143.94 919.45   Q 130.23 919.56 115.38 919.46   A 0.27 0.27 0.0 0 1 115.11 919.19   L 115.11 821.19   A 0.39 0.38 90.0 0 1 115.49 820.80   C 133.66 820.80 152.65 819.55 170.29 824.54   Z"/>
<path fill="#ffffff" d="   M 753.56 822.64   C 791.93 822.72 816.07 848.70 816.13 886.00   Q 816.26 958.82 816.14 1033.33   C 816.09 1064.29 800.90 1088.28 769.35 1095.35   Q 761.18 1097.18 750.01 1097.22   Q 732.12 1097.29 712.72 1097.23   A 0.70 0.69 0.4 0 1 712.03 1096.54   L 712.03 822.99   Q 712.03 822.68 712.34 822.68   Q 732.00 822.59 753.56 822.64   Z"/>
<path fill="#ffffff" d="   M 446.37 839.06   L 477.30 1002.98   A 0.55 0.55 0.0 0 1 476.76 1003.63   L 418.47 1003.64   A 0.35 0.35 0.0 0 1 418.12 1003.23   Q 431.25 924.66 444.41 845.96   C 444.79 843.67 444.97 841.31 445.33 839.08   Q 445.80 836.07 446.37 839.06   Z"/>
<path fill="#000000" d="   M 549.40 1226.74   L 553.35 1216.80   A 0.96 0.95 -79.2 0 1 554.24 1216.19   L 567.29 1216.07   A 0.52 0.52 0.0 0 1 567.77 1216.78   L 560.95 1233.45   A 0.71 0.71 0.0 0 0 561.16 1234.27   C 574.04 1244.66 579.68 1260.62 579.84 1277.07   Q 580.10 1302.25 579.85 1325.19   C 579.53 1354.66 563.38 1376.47 532.83 1378.81   Q 516.67 1380.05 503.30 1374.93   A 1.01 1.00 21.5 0 0 502.01 1375.49   L 498.93 1383.08   A 1.21 1.21 0.0 0 1 497.82 1383.84   L 485.21 1383.96   A 0.68 0.68 0.0 0 1 484.57 1383.02   L 490.77 1368.04   A 0.95 0.93 -57.7 0 0 490.54 1366.99   C 478.77 1356.38 473.80 1341.20 473.71 1325.46   Q 473.53 1292.75 473.86 1274.48   Q 474.05 1263.86 478.43 1253.06   C 485.09 1236.66 499.53 1226.66 517.22 1224.21   C 527.17 1222.83 538.67 1223.50 548.33 1227.20   Q 549.09 1227.50 549.40 1226.74   Z   M 506.22 1327.42   Q 506.21 1327.94 506.30 1328.38   Q 506.58 1329.82 507.14 1328.46   L 538.39 1252.89   Q 539.00 1251.40 537.50 1250.80   Q 530.78 1248.12 522.33 1249.17   Q 510.93 1250.58 507.87 1261.31   Q 506.33 1266.71 506.38 1271.04   Q 506.66 1297.76 506.22 1327.42   Z   M 546.91 1270.19   Q 546.89 1267.15 545.72 1269.96   L 513.05 1348.82   A 1.20 1.19 32.6 0 0 513.35 1350.17   Q 515.19 1351.82 517.64 1352.50   C 526.44 1354.91 539.56 1354.78 544.19 1345.37   Q 546.86 1339.95 546.91 1334.10   Q 547.11 1309.55 546.91 1270.19   Z"/>
<path fill="#000000" d="   M 157.83 1377.93   C 144.53 1375.76 132.57 1368.84 125.61 1357.22   C 120.00 1347.87 118.12 1336.97 118.05 1326.07   Q 117.88 1299.95 118.08 1274.24   Q 118.13 1267.63 120.01 1259.77   C 127.23 1229.53 155.84 1220.00 183.52 1224.59   C 210.89 1229.14 224.04 1249.17 224.23 1276.18   Q 224.47 1309.06 224.08 1330.58   Q 223.97 1336.69 221.92 1344.69   C 214.32 1374.37 185.06 1382.38 157.83 1377.93   Z   M 152.73 1259.81   Q 150.79 1265.31 150.77 1273.25   Q 150.66 1304.94 150.83 1331.39   C 150.89 1341.46 153.80 1351.58 165.39 1353.32   C 173.82 1354.58 185.37 1353.73 189.08 1344.34   Q 191.46 1338.33 191.48 1330.17   Q 191.55 1299.44 191.47 1272.07   C 191.44 1261.12 188.32 1250.69 175.60 1249.14   C 166.14 1248.00 156.25 1249.84 152.73 1259.81   Z"/>
<path fill="#000000" d="   M 941.73 1313.85   Q 941.76 1324.62 941.74 1335.95   C 941.67 1369.70 917.14 1381.83 887.04 1378.57   C 865.52 1376.25 850.68 1363.63 848.93 1340.79   Q 848.43 1334.24 848.76 1326.40   C 849.24 1315.28 852.82 1305.43 862.41 1299.56   A 0.36 0.36 0.0 0 0 862.43 1298.96   Q 851.08 1290.81 849.90 1276.75   C 849.31 1269.66 849.12 1260.39 850.67 1253.49   C 855.55 1231.82 874.32 1224.00 894.81 1223.56   C 918.41 1223.05 938.47 1233.92 941.33 1259.30   Q 942.06 1265.78 941.68 1272.19   A 0.28 0.28 0.0 0 1 941.40 1272.46   L 912.52 1272.45   Q 911.96 1272.45 911.98 1271.89   Q 912.14 1267.52 911.89 1263.26   C 911.37 1254.29 904.76 1248.36 895.92 1248.90   C 888.00 1249.38 881.96 1253.67 881.61 1262.15   Q 881.34 1268.60 881.53 1276.11   C 881.63 1280.18 882.71 1285.01 886.61 1286.94   C 889.36 1288.29 892.78 1287.74 895.77 1287.78   A 0.52 0.52 0.0 0 1 896.29 1288.30   L 896.29 1312.75   Q 896.29 1313.42 895.61 1313.38   C 887.35 1312.85 881.46 1313.77 880.81 1323.52   Q 880.33 1330.65 880.59 1338.43   Q 880.91 1348.04 888.76 1351.96   C 896.64 1355.90 907.64 1353.21 910.83 1344.56   Q 912.16 1340.95 912.11 1333.20   Q 911.95 1310.42 912.06 1288.25   A 0.47 0.47 0.0 0 1 912.53 1287.78   L 955.63 1287.80   A 0.40 0.40 0.0 0 1 956.03 1288.20   L 956.05 1312.76   Q 956.05 1313.31 955.50 1313.31   L 942.28 1313.30   Q 941.72 1313.30 941.73 1313.85   Z"/>
<path fill="#000000" d="   M 1299.30 1322.46   L 1285.95 1322.39   Q 1285.26 1322.38 1285.26 1321.70   L 1285.27 1299.01   A 0.48 0.48 0.0 0 1 1285.75 1298.53   L 1332.51 1298.53   Q 1332.88 1298.53 1332.88 1298.89   Q 1332.89 1314.53 1332.88 1330.09   C 1332.87 1352.00 1324.94 1370.32 1302.37 1376.62   Q 1288.44 1380.51 1272.67 1378.33   C 1244.99 1374.49 1233.61 1353.25 1233.41 1327.62   Q 1233.19 1300.80 1233.42 1274.76   Q 1233.49 1267.20 1235.54 1259.01   C 1242.02 1233.17 1262.21 1222.06 1288.03 1223.70   C 1310.46 1225.14 1326.83 1235.93 1331.33 1259.35   Q 1333.21 1269.11 1332.79 1277.72   Q 1332.77 1278.26 1332.22 1278.26   L 1300.45 1278.24   A 0.48 0.47 -89.4 0 1 1299.98 1277.75   Q 1300.04 1271.14 1299.88 1264.92   C 1299.69 1257.60 1298.07 1250.41 1289.41 1249.28   Q 1284.55 1248.64 1279.86 1249.04   C 1268.07 1250.04 1266.14 1260.58 1266.11 1270.29   Q 1266.02 1304.36 1266.16 1333.82   C 1266.19 1339.42 1267.44 1347.08 1272.00 1350.73   C 1276.64 1354.45 1284.17 1354.14 1289.76 1353.25   C 1297.54 1352.00 1299.95 1346.58 1299.95 1339.51   Q 1299.96 1331.64 1300.01 1323.18   Q 1300.01 1322.47 1299.30 1322.46   Z"/>
<path fill="#000000" d="   M 64.12 1285.49   L 102.39 1285.48   A 0.39 0.39 0.0 0 1 102.78 1285.87   L 102.78 1310.61   A 0.39 0.39 0.0 0 1 102.39 1311.00   L 64.12 1310.98   A 0.39 0.39 0.0 0 0 63.73 1311.37   L 63.73 1377.19   A 0.39 0.39 0.0 0 1 63.34 1377.58   L 32.38 1377.56   A 0.39 0.39 0.0 0 1 31.99 1377.17   L 32.00 1225.39   A 0.39 0.39 0.0 0 1 32.39 1225.00   L 112.36 1225.00   A 0.39 0.39 0.0 0 1 112.75 1225.39   L 112.75 1250.11   A 0.39 0.39 0.0 0 1 112.36 1250.50   L 64.12 1250.50   A 0.39 0.39 0.0 0 0 63.73 1250.89   L 63.73 1285.10   A 0.39 0.39 0.0 0 0 64.12 1285.49   Z"/>
<path fill="#000000" d="   M 271.75 1311.31   A 0.25 0.25 0.0 0 0 271.50 1311.56   L 271.50 1377.03   Q 271.50 1377.57 270.97 1377.57   L 241.27 1377.56   Q 240.74 1377.56 240.74 1377.02   L 240.73 1225.54   Q 240.73 1225.01 241.26 1225.01   Q 269.64 1224.97 289.00 1225.04   C 293.77 1225.05 299.70 1225.50 304.25 1226.94   Q 326.09 1233.85 331.03 1256.00   C 335.45 1275.81 327.91 1297.53 308.75 1306.33   Q 307.93 1306.71 308.27 1307.54   L 336.10 1377.01   A 0.41 0.41 0.0 0 1 335.72 1377.58   L 301.49 1377.56   A 0.64 0.63 80.3 0 1 300.89 1377.13   L 278.08 1311.91   Q 277.87 1311.30 277.23 1311.30   L 271.75 1311.31   Z   M 271.50 1250.16   L 271.50 1286.00   A 0.22 0.22 0.0 0 0 271.72 1286.22   L 285.02 1286.22   A 17.54 15.89 -0.0 0 0 302.56 1270.33   L 302.56 1265.83   A 17.54 15.89 0.0 0 0 285.02 1249.94   L 271.72 1249.94   A 0.22 0.22 0.0 0 0 271.50 1250.16   Z"/>
<path fill="#000000" d="   M 440.58 1297.20   A 0.41 0.41 0.0 0 0 440.55 1297.97   C 454.77 1303.79 463.48 1311.96 464.76 1327.80   C 466.91 1354.49 454.12 1377.25 424.63 1377.48   Q 399.88 1377.67 374.82 1377.53   Q 374.32 1377.53 374.32 1377.02   L 374.30 1225.26   A 0.25 0.24 0.0 0 1 374.55 1225.02   Q 396.15 1224.97 418.40 1225.03   C 436.50 1225.08 451.65 1232.03 457.61 1250.34   C 462.83 1266.36 459.87 1291.24 440.58 1297.20   Z   M 405.14 1250.14   L 405.02 1286.10   A 0.30 0.30 0.0 0 0 405.32 1286.40   L 413.43 1286.43   A 15.71 15.69 -89.8 0 0 429.17 1270.77   L 429.19 1265.63   A 15.71 15.69 -89.8 0 0 413.55 1249.87   L 405.44 1249.84   A 0.30 0.30 0.0 0 0 405.14 1250.14   Z   M 421.86 1311.68   Q 415.62 1309.55 405.61 1310.18   Q 405.07 1310.22 405.07 1310.77   L 405.09 1352.37   Q 405.09 1352.92 405.64 1352.94   Q 413.20 1353.22 420.17 1352.30   C 425.08 1351.65 430.32 1348.77 432.04 1344.02   Q 435.05 1335.69 433.45 1325.76   Q 431.73 1315.04 421.86 1311.68   Z"/>
<path fill="#000000" d="   M 664.07 1306.50   A 0.58 0.58 0.0 0 0 663.78 1307.24   L 691.76 1377.07   A 0.37 0.36 -10.9 0 1 691.42 1377.57   L 657.47 1377.56   A 1.12 1.12 0.0 0 1 656.41 1376.81   L 633.78 1312.14   A 1.20 1.19 80.5 0 0 632.67 1311.34   L 627.96 1311.28   Q 627.19 1311.27 627.19 1312.04   L 627.19 1377.07   A 0.51 0.50 0.0 0 1 626.68 1377.57   L 596.53 1377.56   A 0.28 0.27 90.0 0 1 596.26 1377.28   L 596.21 1225.47   A 0.45 0.45 0.0 0 1 596.66 1225.02   Q 622.19 1224.94 645.12 1225.05   C 665.73 1225.16 681.73 1234.93 686.61 1255.93   C 691.33 1276.23 683.23 1297.50 664.07 1306.50   Z   M 627.09 1250.23   L 627.27 1286.01   A 0.23 0.23 0.0 0 0 627.51 1286.24   L 640.80 1286.17   A 17.41 15.75 -0.3 0 0 658.13 1270.33   L 658.11 1265.59   A 17.41 15.75 -0.3 0 0 640.62 1249.93   L 627.32 1250.00   A 0.23 0.23 0.0 0 0 627.09 1250.23   Z"/>
<path fill="#000000" d="   M 777.00 1225.00   L 804.95 1225.00   A 0.31 0.31 0.0 0 1 805.26 1225.31   L 805.26 1377.26   A 0.31 0.31 0.0 0 1 804.95 1377.57   L 767.13 1377.56   A 0.31 0.31 0.0 0 1 766.84 1377.36   L 731.98 1281.25   A 0.31 0.31 0.0 0 0 731.38 1281.36   L 731.47 1377.25   A 0.31 0.31 0.0 0 1 731.16 1377.56   L 703.11 1377.57   A 0.31 0.31 0.0 0 1 702.80 1377.26   L 702.81 1225.30   A 0.31 0.31 0.0 0 1 703.12 1224.99   L 740.63 1225.02   A 0.31 0.31 0.0 0 1 740.92 1225.22   L 776.14 1321.57   A 0.31 0.31 0.0 0 0 776.74 1321.47   L 776.69 1225.31   A 0.31 0.31 0.0 0 1 777.00 1225.00   Z"/>
<path fill="#000000" d="   M 1032.68 1377.95   C 1006.71 1373.63 994.07 1353.24 994.05 1327.86   Q 994.01 1281.72 994.04 1225.43   A 0.43 0.42 -90.0 0 1 994.46 1225.00   L 1026.22 1225.00   A 0.55 0.55 0.0 0 1 1026.77 1225.55   Q 1026.73 1279.58 1026.79 1331.91   C 1026.80 1342.37 1029.71 1352.51 1042.06 1353.59   C 1051.06 1354.38 1060.19 1353.12 1063.36 1343.64   Q 1065.17 1338.22 1065.18 1332.71   Q 1065.30 1280.47 1065.19 1225.31   A 0.31 0.31 0.0 0 1 1065.50 1225.00   L 1097.30 1225.00   A 0.66 0.66 0.0 0 1 1097.96 1225.66   Q 1097.84 1273.73 1097.87 1321.61   C 1097.87 1331.08 1097.72 1340.50 1094.19 1349.87   C 1084.37 1375.92 1057.88 1382.14 1032.68 1377.95   Z"/>
<path fill="#000000" d="   M 1142.90 1282.07   Q 1142.73 1283.09 1142.74 1284.27   Q 1143.19 1334.43 1143.00 1377.28   A 0.28 0.28 0.0 0 1 1142.72 1377.55   L 1114.76 1377.57   Q 1114.45 1377.57 1114.45 1377.26   L 1114.45 1225.32   Q 1114.45 1225.00 1114.76 1225.00   L 1151.84 1225.00   A 0.93 0.91 -9.9 0 1 1152.71 1225.60   L 1187.44 1320.66   Q 1188.28 1322.94 1188.27 1320.52   L 1188.26 1225.50   Q 1188.26 1225.00 1188.75 1225.00   L 1216.57 1225.00   Q 1216.82 1225.00 1216.82 1225.25   L 1216.82 1377.23   A 0.34 0.33 90.0 0 1 1216.49 1377.57   L 1179.08 1377.57   Q 1178.53 1377.57 1178.35 1377.06   L 1143.87 1281.98   Q 1143.21 1280.16 1142.90 1282.07   Z"/>
<path fill="#000000" d="   M 1380.77 1250.94   L 1380.78 1285.05   A 0.43 0.43 0.0 0 0 1381.21 1285.48   L 1418.60 1285.49   A 0.43 0.43 0.0 0 1 1419.03 1285.92   L 1419.02 1310.56   A 0.43 0.43 0.0 0 1 1418.59 1310.99   L 1381.21 1310.98   A 0.43 0.43 0.0 0 0 1380.78 1311.41   L 1380.78 1351.68   A 0.43 0.43 0.0 0 0 1381.21 1352.11   L 1421.70 1352.12   A 0.43 0.43 0.0 0 1 1422.13 1352.55   L 1422.17 1377.14   A 0.43 0.43 0.0 0 1 1421.74 1377.57   L 1349.65 1377.57   A 0.43 0.43 0.0 0 1 1349.22 1377.14   L 1349.22 1225.43   A 0.43 0.43 0.0 0 1 1349.65 1225.00   L 1419.72 1225.01   A 0.43 0.43 0.0 0 1 1420.15 1225.44   L 1420.12 1250.07   A 0.43 0.43 0.0 0 1 1419.69 1250.50   L 1381.20 1250.51   A 0.43 0.43 0.0 0 0 1380.77 1250.94   Z"/>
<path fill="#ffffff" d="   M 152.73 1259.81   C 156.25 1249.84 166.14 1248.00 175.60 1249.14   C 188.32 1250.69 191.44 1261.12 191.47 1272.07   Q 191.55 1299.44 191.48 1330.17   Q 191.46 1338.33 189.08 1344.34   C 185.37 1353.73 173.82 1354.58 165.39 1353.32   C 153.80 1351.58 150.89 1341.46 150.83 1331.39   Q 150.66 1304.94 150.77 1273.25   Q 150.79 1265.31 152.73 1259.81   Z"/>
<path fill="#ffffff" d="   M 506.22 1327.42   Q 506.66 1297.76 506.38 1271.04   Q 506.33 1266.71 507.87 1261.31   Q 510.93 1250.58 522.33 1249.17   Q 530.78 1248.12 537.50 1250.80   Q 539.00 1251.40 538.39 1252.89   L 507.14 1328.46   Q 506.58 1329.82 506.30 1328.38   Q 506.21 1327.94 506.22 1327.42   Z"/>
<path fill="#ffffff" d="   M 271.50 1250.16   A 0.22 0.22 0.0 0 1 271.72 1249.94   L 285.02 1249.94   A 17.54 15.89 0.0 0 1 302.56 1265.83   L 302.56 1270.33   A 17.54 15.89 0.0 0 1 285.02 1286.22   L 271.72 1286.22   A 0.22 0.22 0.0 0 1 271.50 1286.00   L 271.50 1250.16   Z"/>
<path fill="#ffffff" d="   M 405.14 1250.14   A 0.30 0.30 0.0 0 1 405.44 1249.84   L 413.55 1249.87   A 15.71 15.69 -89.8 0 1 429.19 1265.63   L 429.17 1270.77   A 15.71 15.69 -89.8 0 1 413.43 1286.43   L 405.32 1286.40   A 0.30 0.30 0.0 0 1 405.02 1286.10   L 405.14 1250.14   Z"/>
<path fill="#ffffff" d="   M 627.09 1250.23   A 0.23 0.23 0.0 0 1 627.32 1250.00   L 640.62 1249.93   A 17.41 15.75 -0.3 0 1 658.11 1265.59   L 658.13 1270.33   A 17.41 15.75 -0.3 0 1 640.80 1286.17   L 627.51 1286.24   A 0.23 0.23 0.0 0 1 627.27 1286.01   L 627.09 1250.23   Z"/>
<path fill="#ffffff" d="   M 546.91 1270.19   Q 547.11 1309.55 546.91 1334.10   Q 546.86 1339.95 544.19 1345.37   C 539.56 1354.78 526.44 1354.91 517.64 1352.50   Q 515.19 1351.82 513.35 1350.17   A 1.20 1.19 32.6 0 1 513.05 1348.82   L 545.72 1269.96   Q 546.89 1267.15 546.91 1270.19   Z"/>
<path fill="#ffffff" d="   M 421.86 1311.68   Q 431.73 1315.04 433.45 1325.76   Q 435.05 1335.69 432.04 1344.02   C 430.32 1348.77 425.08 1351.65 420.17 1352.30   Q 413.20 1353.22 405.64 1352.94   Q 405.09 1352.92 405.09 1352.37   L 405.07 1310.77   Q 405.07 1310.22 405.61 1310.18   Q 415.62 1309.55 421.86 1311.68   Z"/>
</svg>